<ttFont>
          <CharString index="0">
            180 callgsubr
            -142 162 callgsubr
            -24 -23 4 5 -20 vhcurveto
            131 -62 -310 13 callgsubr
            return
          </CharString>
          <CharString index="1">
            -105 callgsubr
            -94 109 callsubr
            return
          </CharString>
          <CharString index="2">
            -107 callgsubr
            439 vlineto
            7 return
          </CharString>
          <CharString index="3">
            7 callgsubr
            176 -9 callgsubr
            55 vhcurveto
            58 302 callsubr
            -27 -44 vvcurveto
            return
          </CharString>
          <CharString index="4">
            rmoveto
            -5 -25 -39 -6 -46 hhcurveto
            -95 -41 37 80 hvcurveto
            74 vlineto
            201 callsubr
            74 156 callsubr
            return
          </CharString>
          <CharString index="5">
            rmoveto
            79 -46 50 -100 -100 -47 -50 -79 vhcurveto
            -17 3 -20 -2 vvcurveto
            62 hlineto
            -1 2 -2 17 18 -18 callgsubr
            -140 162 callgsubr
            -32 -31 7 7 -22 vhcurveto
            79 -62 -261 200 callgsubr
            -36 -33 -8 -46 hhcurveto
            -72 265 callgsubr
            125 vlineto
            -8 23 30 -6 34 hhcurveto
            99 252 callgsubr
            return
          </CharString>
          <CharString index="6">
            -54 272 hlineto
            0 13 -50 callgsubr
            -121 vlineto
            -55 -22 -33 -65 -22 -26 192 callsubr
            120 -61 -266 vlineto
            96 callgsubr
            return
          </CharString>
          <CharString index="7">
            hlineto
            -99 callgsubr
            return
          </CharString>
          <CharString index="8">
            74 -21 callsubr
            -98 -91 callgsubr
            -96 return
          </CharString>
          <CharString index="9">
            229 callsubr
            129 76 callgsubr
            return
          </CharString>
          <CharString index="10">
            7 callsubr
            -44 hhcurveto
            -68 -25 29 47 hvcurveto
            172 vlineto
            42 25 34 68 43 37 -9 -4 10 vhcurveto
            return
          </CharString>
          <CharString index="11">
            -15 callsubr
            344 callsubr
            vhcurveto
            -38 callgsubr
            -22 hhcurveto
            -21 callgsubr
            return
          </CharString>
          <CharString index="12" raw="1">
            fb5a072b 1d0b  
          </CharString>
          <CharString index="13">
            354 callsubr
            -8 23 0 vhcurveto
            return
          </CharString>
          <CharString index="14">
            rmoveto
            115 vlineto
            57 25 40 70 69 26 -40 -57 vhcurveto
            -115 vlineto
            -257 -163 rmoveto
            -98 59 -51 128 53 37 302 callgsubr
            -52 callsubr
            -114 -48 325 callgsubr
          </CharString>
          <CharString index="15">
            -80 callgsubr
            64 13 -32 -41 vhcurveto
            -142 62 273 callgsubr
            138 callsubr
            -44 vhcurveto
            return
          </CharString>
          <CharString index="16">
            62 -71 callgsubr
            return
          </CharString>
          <CharString index="17">
            -131 95 -49 130 52 54 7 9 34 vhcurveto
            59 vlineto
            -9 -31 -48 -8 -59 177 callgsubr
            return
          </CharString>
          <CharString index="18">
            -188 vlineto
            -69 callgsubr
            return
          </CharString>
          <CharString index="19">
            rmoveto
            -21 9 -15 28 28 10 15 21 22 -10 15 -28 -28 -9 -15 -22 vhcurveto
            133 hmoveto
            -21 10 -15 27 28 10 15 155 callsubr
            vhcurveto
            return
          </CharString>
          <CharString index="20">
            125 callgsubr
            47 47 96 -42 callsubr
            47 -11 23 0 vhcurveto
            return
          </CharString>
          <CharString index="21">
            -4 37 -13 32 -34 14 rrcurveto
            41 16 11 45 46 vvcurveto
            63 vlineto
            83 -52 51 -105 -45 -32 -7 -8 -25 vhcurveto
            -60 vlineto
            10 29 33 8 39 hhcurveto
            70 27 -32 -46 hvcurveto
            -62 vlineto
            -43 -11 -35 -74 vhcurveto
            -60 -58 60 hlineto
            74 -1 11 -35 -43 vvcurveto
            -73 vlineto
            -46 -1 -26 -32 -70 hhcurveto
            -39 -41 8 9 -32 hvcurveto
            -59 vlineto
            -9 33 39 -6 40 hhcurveto
            106 52 52 82 hvcurveto
            45 119 -213 62 595 return
          </CharString>
          <CharString index="22">
            -80 callsubr
            54 return
          </CharString>
          <CharString index="23">
            -54 267 196 callgsubr
            -73 callgsubr
            return
          </CharString>
          <CharString index="24">
            rmoveto
            -375 345 callsubr
            116 115 53 68 90 vhcurveto
            375 vlineto
            90 -53 68 -115 -116 -52 -68 -90 vhcurveto
            268 -1 rmoveto
            -373 vlineto
            -58 -28 -40 -72 -73 -28 40 58 vhcurveto
            373 vlineto
            58 28 39 73 72 28 -39 -58 vhcurveto
            return
          </CharString>
          <CharString index="25">
            rmoveto
            -3 -13 -26 -6 -31 hhcurveto
            -69 -23 31 42 hvcurveto
            347 162 vlineto
            return
          </CharString>
          <CharString index="26">
            vlineto
            -76 39 -50 90 3 vhcurveto
            5 15 1 0 hvcurveto
            57 vlineto
            -68 -24 callgsubr
            return
          </CharString>
          <CharString index="27">
            -595 -91 callsubr
            return
          </CharString>
          <CharString index="28">
            -95 48 -57 116 24 19 2 3 16 vhcurveto
            -92 callgsubr
          </CharString>
          <CharString index="29">
            10 7 25 -40 callgsubr
            return
          </CharString>
          <CharString index="30">
            rmoveto
            -35 callsubr
            -67 1 -15 27 41 vvcurveto
            132 vlineto
            45 11 25 0 vhcurveto
            180 -101 hlineto
            -36 -27 -8 0 hvcurveto
            -55 vlineto
            0 25 8 31 64 12 -27 -46 vhcurveto
            return
          </CharString>
          <CharString index="31">
            rmoveto
            78 355 78 -355 rlineto
            55 -248 rmoveto
            68 hlineto
            -152 671 rlineto
            -96 hlineto
            -153 -671 rlineto
            68 hlineto
            41 189 rlineto
            182 hlineto
            endchar
          </CharString>
          <CharString index="32">
            -89 callsubr
            17 vhcurveto
            -79 61 return
          </CharString>
          <CharString index="33">
            -83 55 -48 99 249 callsubr
            vhcurveto
            -59 callsubr
            return
          </CharString>
          <CharString index="34">
            -26 -5 -29 hhcurveto
            -64 -19 28 return
          </CharString>
          <CharString index="35">
            vlineto
            -98 callgsubr
            return
          </CharString>
          <CharString index="36">
            rmoveto
            -59 vlineto
            -68 31 -41 56 -31 vhcurveto
            115 -63 rlineto
            42 -22 13 -22 -44 vvcurveto
            -43 vlineto
            -50 -32 -36 -87 -50 -51 11 12 -32 vhcurveto
            -65 vlineto
            -10 27 52 -10 55 hhcurveto
            127 60 55 89 hvcurveto
            54 vlineto
            63 -27 40 -55 29 vhcurveto
            -116 65 rlineto
            -42 23 -17 25 46 vvcurveto
            50 vlineto
            52 33 27 71 50 47 -7 -11 30 vhcurveto
            65 vlineto
            8 -27 -46 8 -55 hhcurveto
            -115 -57 -54 -86 hvcurveto
            return
          </CharString>
          <CharString index="37">
            rmoveto
            -34 vlineto
            -66 30 -36 54 -25 vhcurveto
            87 -41 rlineto
            51 -24 13 -16 -38 vvcurveto
            -20 vlineto
            -49 -26 -29 -90 -47 -40 8 10 -29 vhcurveto
            -64 vlineto
            -9 29 38 -7 53 hhcurveto
            122 58 49 90 hvcurveto
            26 vlineto
            62 -36 34 -55 26 vhcurveto
            -86 42 rlineto
            -44 20 -15 17 46 vvcurveto
            26 vlineto
            52 17 26 86 42 39 -8 -10 28 vhcurveto
            63 vlineto
            9 -28 -42 8 -41 hhcurveto
            -122 -46 -48 -90 hvcurveto
            return
          </CharString>
          <CharString index="38">
            vvcurveto
            -68 callgsubr
          </CharString>
          <CharString index="39">
            rlineto
            37 4 23 23 63 hhcurveto
            24 19 -4 0 hvcurveto
            55 vlineto
            0 -21 4 -24 24 callsubr
            return
          </CharString>
          <CharString index="40">
            20 58 hlineto
            -68 -24 callgsubr
            247 vlineto
            43 23 32 69 36 35 -7 -5 20 vhcurveto
            -434 -91 callsubr
            return
          </CharString>
          <CharString index="41">
            -56 callsubr
            -68 vlineto
            -60 -27 -13 -83 vhcurveto
            return
          </CharString>
          <CharString index="42">
            rmoveto
            180 -144 rlineto
            -57 vlineto
            -4 -11 -29 -9 -44 hhcurveto
            -72 -24 32 44 hvcurveto
            180 49 rmoveto
            -179 141 rlineto
            35 6 26 24 63 hhcurveto
            44 29 -9 -4 11 hvcurveto
            return
          </CharString>
          <CharString index="43">
            rmoveto
            -522 vlineto
            -58 -27 -40 -73 -72 -28 40 58 vhcurveto
            522 -67 -523 vlineto
            -90 52 343 callsubr
            52 68 90 vhcurveto
            523 vlineto
            return
          </CharString>
          <CharString index="44">
            hhcurveto
            -119 -44 23 callgsubr
            -93 -33 -48 -84 -21 4 -27 260 callsubr
            25 24 166 callsubr
            return
          </CharString>
          <CharString index="45">
            -48 callsubr
            96 return
          </CharString>
          <CharString index="46">
            rmoveto
            -11 vlineto
            -20 -5 -11 -17 vhcurveto
            1 -28 -32 39 -47 hhcurveto
            -47 -20 -32 -41 hvcurveto
            -14 49 12 vlineto
            20 7 11 16 vhcurveto
            33 29 -41 46 hhcurveto
            42 23 27 46 hvcurveto
            14 vlineto
            endchar
          </CharString>
          <CharString index="47">
            66 callgsubr
            -46 44 -94 71 callgsubr
            return
          </CharString>
          <CharString index="48">
            -91 59 245 -59 -97 vlineto
            -6 -28 -20 -3 -36 hhcurveto
            -67 -28 34 callsubr
            return
          </CharString>
          <CharString index="49">
            rmoveto
            -344 vlineto
            1 -91 4 -72 1 -55 -21 56 -26 69 -32 84 -139 353 rcurveline
            -79 -671 66 344 hlineto
            -1 91 -4 71 -1 55 22 -56 25 -69 33 -84 139 -352 rcurveline
            80 671 hlineto
            return
          </CharString>
          <CharString index="50">
            rmoveto
            -54 258 -103 vlineto
            4 -10 -38 9 -46 hhcurveto
            -99 219 callsubr
            -174 vlineto
            -17 2 -16 5 -14 vhcurveto
            -8 -35 -38 -5 -33 207 callsubr
            47 vlineto
            41 18 28 68 vhcurveto
            36 57 -35 hlineto
            -67 1 -14 27 41 vvcurveto
            50 159 callgsubr
            return
          </CharString>
          <CharString index="51">
            0 8 -50 callgsubr
            return
          </CharString>
          <CharString index="52">
            rmoveto
            56 hlineto
            50 107 rlineto
            -42 hlineto
            -36 -64 -36 64 rlineto
            -43 hlineto
            return
          </CharString>
          <CharString index="53">
            6 6 23 vhcurveto
            -97 -91 callsubr
            return
          </CharString>
          <CharString index="54">
            1 callgsubr
            558 397 rmoveto
            -1020 -101 callsubr
            528 -105 hlineto
            7 -22 -31 6 -42 hhcurveto
            -52 -39 -14 -25 -24 hvcurveto
            25 -22 -36 13 -53 23 callsubr
            32 26 4 8 20 vhcurveto
            -18 vlineto
            -76 37 -47 89 vhcurveto
            21 58 hlineto
            -68 -24 callgsubr
            247 vlineto
            43 23 32 69 36 34 -7 -5 21 355 callgsubr
          </CharString>
          <CharString index="55">
            63 vlineto
            -8 -28 -41 -9 -46 hhcurveto
            -90 -33 31 58 hvcurveto
            103 255 174 vlineto
            88 -47 67 -113 return
          </CharString>
          <CharString index="56">
            9 -23 178 callgsubr
            return
          </CharString>
          <CharString index="57">
            -103 callgsubr
            51 37 114 callsubr
            return
          </CharString>
          <CharString index="58">
            -78 40 -41 95 96 40 41 78 vhcurveto
            return
          </CharString>
          <CharString index="59">
            -48 100 45 38 9 4 10 vhcurveto
            -83 62 595 return
          </CharString>
          <CharString index="60">
            -33 callgsubr
            -73 -39 -78 callgsubr
            24 -4 25 hhcurveto
            return
          </CharString>
          <CharString index="61">
            rmoveto
            -44 callsubr
            136 146 101 54 -458 2 callsubr
            endchar
          </CharString>
          <CharString index="62">
            -373 -239 -113 rmoveto
            5 7 -2 -1 -2 -2 -3 -2 rlinecurve
            -171 -51 rmoveto
            8 1 8 1 6 vhcurveto
            -13 -16 -4 -23 -1 -20 rrcurveto
            10 18 6 31 -12 vvcurveto
            111 -163 rmoveto
            -18 -9 23 -16 hvcurveto
            -9 -2 -14 -10 -14 -3 11 -3 11 -1 13 -1 17 4 9 6 3 3 rrcurveto
            -74 -10 rmoveto
            3 4 1 1 3 hvcurveto
            -36 8 -23 20 -11 27 -21 -48 8 -28 73 19 rrcurveto
            -59 59 rmoveto
            2 3 73 1 hhcurveto
            4 vlineto
            -6 -3 -5 -4 -4 hhcurveto
            -4 -26 2 -24 7 -19 rrcurveto
            168 59 rmoveto
            3 1 61 5 vhcurveto
            3 18 5 16 12 10 rrcurveto
            21 -15 -8 12 -41 hhcurveto
            -64 -33 -17 -45 -8 hvcurveto
            14 10 17 9 25 hhcurveto
            54 12 -28 -36 -2 hvcurveto
            -7 -3 -45 -4 hvcurveto
            return
          </CharString>
          <CharString index="63">
            80 -47 42 -100 vhcurveto
            -18 hlineto
            -66 239 callsubr
            35 vlineto
            41 18 25 66 vhcurveto
            return
          </CharString>
          <CharString index="64">
            67 -48 103 58 44 -78 callsubr
            -33 -9 -58 hhcurveto
            return
          </CharString>
          <CharString index="65">
            hvcurveto
            122 vlineto
            return
          </CharString>
          <CharString index="66">
            rmoveto
            -38 -107 rlineto
            44 hlineto
            58 107 rlineto
            return
          </CharString>
          <CharString index="67">
            vlineto
            -74 callsubr
            endchar
          </CharString>
          <CharString index="68">
            rmoveto
            -129 165 129 11 callgsubr
            return
          </CharString>
          <CharString index="69">
            rmoveto
            -41 -14 -32 -67 -68 -13 32 41 vhcurveto
            346 162 vlineto
            return
          </CharString>
          <CharString index="70">
            rmoveto
            -42 -14 -27 -64 252 callsubr
            vhcurveto
            126 vlineto
            251 callsubr
            64 14 -28 -41 vhcurveto
            -215 -126 rmoveto
            -88 39 -36 98 98 39 36 88 vhcurveto
            126 vlineto
            80 -39 44 -98 359 callsubr
            vhcurveto
            endchar
          </CharString>
          <CharString index="71">
            vlineto
            -54 callgsubr
            67 159 callgsubr
            -237 -54 102 hlineto
            0 -8 63 callsubr
            return
          </CharString>
          <CharString index="72">
            -69 -24 -23 -108 -108 -25 21 68 vhcurveto
            32 vlineto
            44 20 25 68 vhcurveto
            51 56 -52 hlineto
            return
          </CharString>
          <CharString index="73">
            -97 -50 callsubr
            return
          </CharString>
          <CharString index="74">
            -34 -27 -25 -40 -41 vvcurveto
            -44 27 -23 54 vhcurveto
            14 46 -12 hlineto
            -25 -12 10 26 33 19 36 30 24 hvcurveto
            return
          </CharString>
          <CharString index="75">
            6 callgsubr
            -37 40 -89 106 callsubr
            66 vhcurveto
            return
          </CharString>
          <CharString index="76">
            5 -15 4 -37 -26 vvcurveto
            -128 vlineto
            -41 -12 -30 -64 -27 -26 3 6 -24 vhcurveto
            124 -61 -283 61 102 vlineto
            -6 25 26 -3 30 hhcurveto
            90 44 45 82 hvcurveto
            129 vlineto
            39 -4 23 -4 16 vhcurveto
            return
          </CharString>
          <CharString index="77">
            hhcurveto
            47 42 6 6 23 42 callsubr
          </CharString>
          <CharString index="78">
            58 vlineto
            -10 -32 -39 -7 -45 hhcurveto
            -70 -38 28 57 hvcurveto
            return
          </CharString>
          <CharString index="79">
            -16 24 40 vhcurveto
            return
          </CharString>
          <CharString index="80">
            hhcurveto
            -53 -38 -100 callgsubr
            21 31 62 16 return
          </CharString>
          <CharString index="81">
            53 -16 -29 21 -46 350 callgsubr
            6 9 1 8 hhcurveto
            28 9 -17 -31 10 hvcurveto
            39 -127 rlineto
            -35 145 callgsubr
            -29 20 -19 callsubr
            18 -12 -28 19 312 callsubr
            return
          </CharString>
          <CharString index="82">
            -82 callsubr
            807 54 rmoveto
            -1108 -51 callgsubr
            433 vlineto
            7 23 34 2 23 hhcurveto
            65 11 -28 -42 hvcurveto
            -88 62 89 vlineto
            74 -32 51 -103 -25 -39 -3 -7 -19 vhcurveto
            107 587 -114 -285 -56 79 155 callgsubr
            -31 -24 3 6 -25 vhcurveto
            -57 vlineto
            -6 22 23 -3 36 197 callgsubr
          </CharString>
          <CharString index="83">
            rmoveto
            -30 -10 -17 -23 -23 10 206 callgsubr
            hvcurveto
            -430 253 rmoveto
            236 callgsubr
            vlineto
            -99 -47 -40 -80 hvcurveto
            -30 vlineto
            -80 48 -40 98 vhcurveto
            18 hlineto
            68 17 -27 -41 hvcurveto
            -44 vlineto
            -51 -37 -21 -70 -50 -51 6 9 -37 vhcurveto
            -57 vlineto
            25 -6 27 -4 30 -3 -77 -141 rcurveline
            66 hlineto
            72 139 rlineto
            12 hlineto
            73 -139 rlineto
            65 hlineto
            -80 148 rlineto
            63 16 31 41 63 vvcurveto
            45 306 callgsubr
            27 206 callsubr
            134 54 hlineto
            endchar
          </CharString>
          <CharString index="84">
            -54 hhcurveto
            -94 -44 -49 -80 hvcurveto
            return
          </CharString>
          <CharString index="85">
            -54 518 -461 hlineto
            -5 -16 -26 -5 -29 hhcurveto
            -64 352 callsubr
            64 vhcurveto
            8 11 -1 7 -13 callgsubr
            -7 -13 1 -10 hhcurveto
            -37 -29 -7 -13 -22 hvcurveto
            7 -40 -38 4 -40 hhcurveto
            -103 -57 -49 -83 hvcurveto
            -241 -81 callsubr
            238 214 callsubr
            27 25 -2 -2 23 vhcurveto
            -6 -16 -3 -18 -20 vvcurveto
            -188 vlineto
            -80 47 -43 93 31 28 6 4 16 vhcurveto
            -79 61 437 vlineto
            7 22 29 3 24 hhcurveto
            64 11 -29 -41 hvcurveto
            return
          </CharString>
          <CharString index="86">
            649 rmoveto
            return
          </CharString>
          <CharString index="87">
            rmoveto
            -20 -103 rlineto
            -65 -60 63 -387 hlineto
            -81 44 -44 88 31 35 8 2 8 vhcurveto
            62 vlineto
            -4 -9 -31 -7 -28 hhcurveto
            -46 -24 18 49 hvcurveto
            384 128 60 -128 103 vlineto
            return
          </CharString>
          <CharString index="88">
            -48 hhcurveto
            -12 170 callsubr
            -54 vlineto
            1 7 10 1 9 hhcurveto
            30 return
          </CharString>
          <CharString index="89">
            vlineto
            -49 callsubr
            return
          </CharString>
          <CharString index="90">
            595 rmoveto
            174 -328 hlineto
            -6 -17 -29 -7 -37 293 callsubr
            return
          </CharString>
          <CharString index="91">
            184 -82 callsubr
            return
          </CharString>
          <CharString index="92">
            -95 48 -57 116 return
          </CharString>
          <CharString index="93">
            vlineto
            45 139 callsubr
            return
          </CharString>
          <CharString index="94">
            -515 vlineto
            -8 -28 -34 -7 -48 hhcurveto
            -75 49 callgsubr
            10 25 0 vhcurveto
            99 54 return
          </CharString>
          <CharString index="95">
            -41 -18 -32 -68 -67 -18 32 41 vhcurveto
            255 vlineto
            42 18 32 67 68 18 -32 -42 vhcurveto
            return
          </CharString>
          <CharString index="96">
            rmoveto
            144 102 54 -488 -54 324 -90 -106 vlineto
            -99 -44 -37 -79 hvcurveto
            -12 vlineto
            -47 124 callgsubr
            -18 -30 -46 vvcurveto
            -55 vlineto
            -93 51 -54 139 50 65 8 8 40 vhcurveto
            55 vlineto
            -8 -48 -54 -7 -51 hhcurveto
            -107 -23 36 57 hvcurveto
            53 vlineto
            42 21 25 68 vhcurveto
            79 hlineto
            5 4 0 4 hhcurveto
            -124 -146 63 -2 109 127 rlineto
            7 -11 2 -15 -19 vvcurveto
            -31 59 33 vlineto
            78 -36 38 -90 vhcurveto
            -86 286 callsubr
          </CharString>
          <CharString index="97">
            -17 30 28 callgsubr
            return
          </CharString>
          <CharString index="98">
            606 844 192 rmoveto
            -5 -13 -30 -4 -34 hhcurveto
            -63 -15 27 42 hvcurveto
            323 callsubr
            15 28 63 330 callsubr
            -1026 -54 523 hlineto
            0 13 -50 callgsubr
            -121 vlineto
            -55 -22 -33 -65 -22 -26 192 callsubr
            158 -63 callgsubr
            29 vhcurveto
            -255 vlineto
            return
          </CharString>
          <CharString index="99">
            rmoveto
            281 91 vlineto
            69 28 -35 -58 hvcurveto
            -95 vlineto
            -59 -27 -34 -70 vhcurveto
            185 -330 rmoveto
            -107 283 rlineto
            59 22 27 51 67 vvcurveto
            97 190 callgsubr
            -161 -671 67 271 96 hlineto
            7 hlineto
            98 -271 rlineto
            endchar
          </CharString>
          <CharString index="100">
            rmoveto
            -40 27 -33 47 48 26 33 40 40 -26 32 -48 -47 -27 -32 -40 vhcurveto
            109 hmoveto
            -22 -13 -14 -22 -22 -13 14 22 21 13 14 22 22 13 -14 -21 vhcurveto
            return
          </CharString>
          <CharString index="101">
            -12 1 -10 hhcurveto
            return
          </CharString>
          <CharString index="102">
            62 -45 callgsubr
          </CharString>
          <CharString index="103">
            135 hlineto
            80 -41 45 -93 -92 275 callgsubr
            11 28 60 61 11 -27 -41 vhcurveto
            -134 -75 vlineto
            -95 -40 -39 -78 hvcurveto
            -96 vlineto
            -79 40 -41 95 96 40 41 79 vhcurveto
            160 return
          </CharString>
          <CharString index="104">
            186 vlineto
            42 return
          </CharString>
          <CharString index="105">
            rmoveto
            26 259 callgsubr
            vlineto
            15 33 33 11 38 hhcurveto
            47 29 -23 -52 hvcurveto
            -432 68 438 vlineto
            86 -53 46 -81 -47 -46 -18 -10 -24 vhcurveto
            return
          </CharString>
          <CharString index="106">
            198 rmoveto
            -6 -16 -29 -7 -38 hhcurveto
            -68 -23 30 42 hvcurveto
            338 174 vlineto
            return
          </CharString>
          <CharString index="107">
            rmoveto
            -37 -1 -21 -25 -38 hhcurveto
            -38 -21 25 37 -1 hvcurveto
            -49 hlineto
            -60 1 39 -47 69 hhcurveto
            69 39 47 60 1 hvcurveto
            return
          </CharString>
          <CharString index="108">
            388 671 rmoveto
            -267 -671 rlineto
            52 hlineto
            267 671 rlineto
            -241 -132 rmoveto
            -63 -19 -28 -36 -36 -18 28 63 62 18 28 36 36 19 -28 -62 vhcurveto
            -164 hmoveto
            -89 37 -53 72 73 37 53 89 88 -37 53 -73 -72 -37 -53 -88 vhcurveto
            435 -407 rmoveto
            -62 -18 -28 -36 -36 -18 28 62 63 18 28 36 36 18 -28 -63 vhcurveto
            -163 hmoveto
            -89 36 -52 73 73 37 52 89 89 -37 53 -73 -73 -36 -53 -89 vhcurveto
            return
          </CharString>
          <CharString index="109">
            236 callgsubr
            hlineto
            -99 -47 -40 -80 hvcurveto
            -65 callgsubr
            return
          </CharString>
          <CharString index="110">
            vlineto
            -83 56 -45 98 vhcurveto
            2 hlineto
            -154 -173 rlineto
            75 hlineto
            161 181 3 1 rlineto
            -121 60 245 -60 -71 vlineto
            -6 -28 -19 -3 -36 hhcurveto
            -68 -28 30 46 hvcurveto
            144 230 callsubr
            endchar
          </CharString>
          <CharString index="111">
            24 0 vhcurveto
            return
          </CharString>
          <CharString index="112">
            241 callgsubr
            vlineto
            endchar
          </CharString>
          <CharString index="113">
            rmoveto
            272 callgsubr
            11 17 23 24 -11 17 -30 347 callgsubr
            vhcurveto
            return
          </CharString>
          <CharString index="114">
            rmoveto
            -4 -9 -37 -8 return
          </CharString>
          <CharString index="115">
            83 -44 51 -106 -43 -26 -7 -9 -22 vhcurveto
            -58 vlineto
            10 25 27 7 39 hhcurveto
            69 19 -33 -46 hvcurveto
            -188 vlineto
            -47 -19 -32 -70 -46 -30 9 7 -21 vhcurveto
            -57 vlineto
            -8 21 31 -8 46 hhcurveto
            105 45 51 82 hvcurveto
            return
          </CharString>
          <CharString index="116">
            -76 39 -47 90 vhcurveto
            -67 callsubr
            return
          </CharString>
          <CharString index="117">
            vlineto
            -96 callsubr
            return
          </CharString>
          <CharString index="118">
            -54 307 -90 -89 hlineto
            -99 -44 -39 -79 hvcurveto
            -14 vlineto
            -46 124 callgsubr
            -18 -31 -47 vvcurveto
            return
          </CharString>
          <CharString index="119">
            62 callsubr
            endchar
          </CharString>
          <CharString index="120">
            59 60 519 rmoveto
            -371 vlineto
            -90 47 343 callsubr
            47 68 90 vhcurveto
            128 vlineto
            93 -56 49 -94 -42 -37 -8 -14 -29 vhcurveto
            120 vlineto
            52 25 45 86 50 42 -8 -12 32 vhcurveto
            65 vlineto
            9 -26 -44 9 -55 hhcurveto
            -127 -50 -70 -87 hvcurveto
            258 -246 rmoveto
            -125 vlineto
            -58 -23 -40 -73 -72 -23 40 58 vhcurveto
            185 vlineto
            14 24 39 10 38 hhcurveto
            58 32 -23 -61 hvcurveto
            endchar
          </CharString>
          <CharString index="121">
            69 312 416 rmoveto
            -8 -1 -7 -1 -7 vhcurveto
            -173 201 rlineto
            175 hlineto
            -477 vmoveto
            -44 -18 -32 -73 -74 -18 32 44 vhcurveto
            92 vlineto
            44 18 33 74 73 18 -33 -44 vhcurveto
            -183 325 rmoveto
            155 -182 rlineto
            -9 -14 -20 -5 -29 hhcurveto
            -74 -18 33 44 hvcurveto
            336 233 rmoveto
            -489 -54 92 -179 hlineto
            -46 17 -36 34 -21 vhcurveto
            -34 -22 -17 -35 -45 vvcurveto
            -93 vlineto
            return
          </CharString>
          <CharString index="122">
            59 46 523 rmoveto
            -131 vlineto
            -93 57 -54 94 41 38 6 15 29 vhcurveto
            -116 vlineto
            -50 -26 -43 -87 -50 -45 11 12 -32 vhcurveto
            -66 vlineto
            -8 26 47 -11 55 hhcurveto
            125 54 65 87 hvcurveto
            376 vlineto
            90 -47 68 -116 -115 -48 -68 -90 vhcurveto
            259 hmoveto
            -193 vlineto
            -16 -24 -37 -8 -39 hhcurveto
            -58 -33 28 61 hvcurveto
            128 vlineto
            58 23 39 72 73 23 -39 -58 vhcurveto
            endchar
          </CharString>
          <CharString index="123">
            -97 -103 callgsubr
            return
          </CharString>
          <CharString index="124">
            vlineto
            -76 39 -50 89 3 vhcurveto
            7 12 1 2 hhcurveto
            57 vlineto
            -68 -24 callgsubr
            return
          </CharString>
          <CharString index="125">
            99 callsubr
            -7 4 callsubr
            123 hlineto
            return
          </CharString>
          <CharString index="126">
            51 24 31 87 42 42 -8 -9 31 vhcurveto
            63 vlineto
            8 -29 -41 8 -46 hhcurveto
            -123 -55 -54 -87 hvcurveto
            return
          </CharString>
          <CharString index="127">
            rmoveto
            162 -354 121 callgsubr
            444 291 rmoveto
            54 -592 -54 86 -292 vlineto
            -79 48 -48 96 -1 vhcurveto
            -158 -194 rlineto
            73 hlineto
            164 204 rlineto
            1 -185 60 434 hlineto
            7 24 36 2 25 hhcurveto
            65 13 -27 -43 hvcurveto
            -5 59 6 vlineto
            74 -31 51 -103 -28 -39 -3 -7 -21 vhcurveto
            106 vlineto
            endchar
          </CharString>
          <CharString index="128">
            -51 callsubr
            -94 -44 -49 -80 hvcurveto
            return
          </CharString>
          <CharString index="129">
            rmoveto
            -42 -11 -23 191 callsubr
            94 160 callgsubr
            return
          </CharString>
          <CharString index="130">
            hhcurveto
            -98 -39 -44 235 callgsubr
            -88 39 -36 98 return
          </CharString>
          <CharString index="131">
            -104 26 callgsubr
            return
          </CharString>
          <CharString index="132">
            hvcurveto
            -285 -54 290 -91 -79 hlineto
            -98 -47 -40 -80 hvcurveto
            -6 vlineto
            -80 47 -41 98 vhcurveto
            22 hlineto
            68 18 -27 -40 hvcurveto
            -38 vlineto
            -44 -28 -24 -68 -36 -28 3 5 -25 vhcurveto
            79 -59 -236 59 101 vlineto
            -5 23 32 -3 37 hhcurveto
            109 45 41 82 hvcurveto
            40 vlineto
            79 -47 42 -100 vhcurveto
            -22 hlineto
            -66 239 callsubr
            5 vlineto
            41 18 24 66 vhcurveto
            return
          </CharString>
          <CharString index="133">
            78 314 568 -67 callgsubr
            66 568 vlineto
            return
          </CharString>
          <CharString index="134">
            -173 -40 callsubr
          </CharString>
          <CharString index="135">
            63 vlineto
            187 callsubr
            291 vlineto
            52 19 29 84 38 37 -5 -8 26 vhcurveto
            62 vlineto
            8 -25 -34 6 -46 hhcurveto
            -119 -48 -52 -90 hvcurveto
            return
          </CharString>
          <CharString index="136">
            -44 -12 -16 -38 -46 vvcurveto
            -52 323 callgsubr
            46 52 10 11 39 vhcurveto
            -23 25 37 -12 50 hhcurveto
            46 38 9 4 10 hvcurveto
            -83 61 callsubr
          </CharString>
          <CharString index="137">
            -88 callsubr
            endchar
          </CharString>
          <CharString index="138">
            vlineto
            -34 callsubr
            return
          </CharString>
          <CharString index="139">
            -85 55 -45 100 45 30 9 4 11 vhcurveto
            -83 58 -71 callgsubr
            return
          </CharString>
          <CharString index="140">
            -18 callsubr
            195 return
          </CharString>
          <CharString index="141">
            29 46 hvcurveto
            171 -14 callgsubr
            return
          </CharString>
          <CharString index="142">
            26 54 659 rmoveto
            -66 vlineto
            11 31 44 9 47 hhcurveto
            90 18 -32 -49 hvcurveto
            -50 vlineto
            -52 -11 -29 -43 -28 vhcurveto
            -78 -55 rlineto
            -64 -43 -45 -39 -92 vvcurveto
            -144 311 63 -243 79 vlineto
            63 24 23 62 42 vhcurveto
            77 54 58 39 19 40 1 75 rlinecurve
            57 vlineto
            87 -51 54 -124 -51 -48 -9 -8 -24 vhcurveto
            endchar
          </CharString>
          <CharString index="143">
            rmoveto
            -4 0 -4 -1 -4 vhcurveto
            -174 196 rlineto
            175 hlineto
            -97 -254 rmoveto
            -67 -19 30 41 hvcurveto
            124 vlineto
            158 -180 rlineto
            -10 -14 -20 -5 -23 hhcurveto
            return
          </CharString>
          <CharString index="144">
            48 callsubr
            vlineto
            endchar
          </CharString>
          <CharString index="145">
            -54 286 -461 hlineto
            -107 callgsubr
            417 vlineto
            8 248 callgsubr
            -28 -42 hvcurveto
            return
          </CharString>
          <CharString index="146">
            250 vlineto
            223 callsubr
            47 42 6 6 23 vhcurveto
            -97 62 595 97 vlineto
            endchar
          </CharString>
          <CharString index="147">
            -54 286 -93 -58 hlineto
            -101 -47 -46 -82 hvcurveto
            40 callgsubr
            return
          </CharString>
          <CharString index="148">
            hhcurveto
            -49 -30 -17 -28 -21 hvcurveto
            -61 callgsubr
            -198 vlineto
            -15 callsubr
            5 53 0 1 2 vhcurveto
            55 -59 vlineto
            -21 callgsubr
            196 vlineto
            41 14 32 63 64 13 -32 -41 vhcurveto
            -142 62 273 callgsubr
            138 callsubr
            -44 vhcurveto
            -48 1 return
          </CharString>
          <CharString index="149">
            hvcurveto
            -97 132 callsubr
          </CharString>
          <CharString index="150">
            rmoveto
            -21 10 -16 27 28 10 16 155 callsubr
            vhcurveto
            endchar
          </CharString>
          <CharString index="151">
            -60 callsubr
            vlineto
            endchar
          </CharString>
          <CharString index="152">
            rlineto
            14 hlineto
            36 17 -11 -26 -25 -22 -12 -30 -16 -16 3 5 -11 hvcurveto
            -39 vlineto
            -5 14 20 -2 16 hhcurveto
            49 40 25 49 43 -30 22 -38 2 hvcurveto
            return
          </CharString>
          <CharString index="153">
            61 -71 callgsubr
            vlineto
            endchar
          </CharString>
          <CharString index="154">
            45 62 671 rmoveto
            -348 vlineto
            7 76 26 4 41 hhcurveto
            72 20 -31 -59 hvcurveto
            -103 vlineto
            -50 -27 -34 -86 -48 -44 12 13 -34 vhcurveto
            -67 vlineto
            -10 31 41 -10 55 hhcurveto
            123 57 56 87 hvcurveto
            110 vlineto
            90 -45 59 -107 -26 -27 -1 -4 -30 vhcurveto
            216 219 63 vlineto
            endchar
          </CharString>
          <CharString index="155">
            -78 49 -48 97 -1 vhcurveto
            53 callsubr
            return
          </CharString>
          <CharString index="156">
            -24 358 callsubr
            11 17 24 23 -11 17 -30 return
          </CharString>
          <CharString index="157">
            170 -77 callsubr
            141 229 rmoveto
            54 return
          </CharString>
          <CharString index="158">
            72 60 523 rmoveto
            -375 vlineto
            -90 47 343 callsubr
            47 68 90 vhcurveto
            375 vlineto
            90 -47 68 -116 -115 -47 -68 -90 vhcurveto
            258 -1 rmoveto
            -373 vlineto
            -58 -23 -40 -73 -72 -23 40 58 vhcurveto
            373 vlineto
            58 23 40 72 73 23 -40 -58 vhcurveto
            endchar
          </CharString>
          <CharString index="159">
            rmoveto
            -27 -120 rlineto
            34 hlineto
            14 168 callsubr
            return
          </CharString>
          <CharString index="160">
            -179 -199 rlineto
            153 callsubr
            return
          </CharString>
          <CharString index="161">
            -28 -41 vhcurveto
            -183 vlineto
            -42 return
          </CharString>
          <CharString index="162">
            -107 347 290 rmoveto
            -271 -290 rlineto
            79 hlineto
            99 103 64 69 25 34 4 9 rlinecurve
            -157 380 rmoveto
            148 54 -362 -54 153 -233 307 callgsubr
            -1 6 19 -2 246 callsubr
            return
          </CharString>
          <CharString index="163">
            82 60 523 -83 callsubr
            return
          </CharString>
          <CharString index="164">
            rmoveto
            71 -37 46 -79 9 vhcurveto
            89 195 54 -452 -54 195 -89 vlineto
            90 callgsubr
            -61 hmoveto
            -12 callsubr
            endchar
          </CharString>
          <CharString index="165">
            50 45 35 32 76 vvcurveto
            35 128 callgsubr
            -35 vlineto
            -77 31 -33 56 -44 vhcurveto
            -117 -102 81 -11 84 75 return
          </CharString>
          <CharString index="166">
            -91 callsubr
            hlineto
            endchar
          </CharString>
          <CharString index="167">
            32 callsubr
            vlineto
            endchar
          </CharString>
          <CharString index="168">
            61 -45 callgsubr
          </CharString>
          <CharString index="169">
            22 callgsubr
            234 vlineto
            179 callsubr
            return
          </CharString>
          <CharString index="170">
            -23 -47 vvcurveto
            -67 74 callsubr
            return
          </CharString>
          <CharString index="171">
            hlineto
            -55 callgsubr
            return
          </CharString>
          <CharString index="172">
            rmoveto
            208 callsubr
            -105 149 rlineto
            return
          </CharString>
          <CharString index="173">
            11 callsubr
            -57 vlineto
            -83 51 -52 118 46 49 4 8 41 vhcurveto
            54 vlineto
            -8 -48 -39 280 callsubr
            return
          </CharString>
          <CharString index="174">
            50 callgsubr
            80 hvcurveto
            return
          </CharString>
          <CharString index="175">
            309 719 rmoveto
            -151 -96 vlineto
            -91 -62 -52 -97 hvcurveto
            -279 vlineto
            -91 48 -52 93 58 31 19 17 20 vhcurveto
            -33 67 719 vlineto
            -68 -626 rmoveto
            -17 -18 -34 -18 -46 hhcurveto
            -56 -27 28 58 hvcurveto
            274 vlineto
            59 34 29 63 vhcurveto
            84 hlineto
            return
          </CharString>
          <CharString index="176">
            235 callsubr
            -12 1 -11 1 -11 vhcurveto
            -7 -27 -34 -7 -36 hhcurveto
            -67 -25 27 49 hvcurveto
            145 vlineto
            -10 callgsubr
            -146 vlineto
            -83 49 -48 102 45 47 11 8 26 vhcurveto
            return
          </CharString>
          <CharString index="177">
            -54 77 -346 hlineto
            107 callgsubr
            return
          </CharString>
          <CharString index="178">
            180 callsubr
            5 return
          </CharString>
          <CharString index="179">
            -68 -27 -28 2 7 -26 vhcurveto
            72 -59 -217 59 89 vlineto
            -7 25 25 -2 36 hhcurveto
            return
          </CharString>
          <CharString index="180">
            -266 -284 rlineto
            81 hlineto
            101 107 75 81 12 19 3 7 rlinecurve
            -1 -10 -3 -56 -73 vvcurveto
            -30 60 596 96 54 return
          </CharString>
          <CharString index="181">
            vlineto
            -46 2 callgsubr
            return
          </CharString>
          <CharString index="182">
            vlineto
            -50 -35 -26 -36 -30 vhcurveto
            -37 30 -35 26 50 vvcurveto
            return
          </CharString>
          <CharString index="183">
            52 23 vvcurveto
            17 -12 8 -15 vhcurveto
            return
          </CharString>
          <CharString index="184">
            62 115 446 rmoveto
            187 -174 rlineto
            -85 vlineto
            -8 -24 -25 -8 -43 hhcurveto
            -68 -27 31 41 hvcurveto
            187 352 rmoveto
            -261 vlineto
            -187 174 rlineto
            87 vlineto
            -139 54 rmoveto
            -54 77 -353 vlineto
            -80 53 -47 99 return
          </CharString>
          <CharString index="185">
            -119 vlineto
            -45 17 -33 32 -19 vhcurveto
            -29 -20 -17 -32 -44 vvcurveto
            -41 vlineto
            -83 47 -47 102 103 45 48 83 vhcurveto
            268 -59 -92 vlineto
            -3 -15 -34 -7 -39 hhcurveto
            -67 -25 27 41 hvcurveto
            117 230 callsubr
            endchar
          </CharString>
          <CharString index="186">
            -58 callsubr
            endchar
          </CharString>
          <CharString index="187">
            vhcurveto
            9 10 320 callgsubr
            -46 -44 -80 hvcurveto
            return
          </CharString>
          <CharString index="188">
            rmoveto
            -41 -11 -24 -64 -63 -11 25 40 vhcurveto
            53 76 callgsubr
            return
          </CharString>
          <CharString index="189">
            479 rmoveto
            157 callsubr
            return
          </CharString>
          <CharString index="190">
            119 hlineto
            -31 callsubr
            return
          </CharString>
          <CharString index="191">
            149 callsubr
            4 hlineto
            -1 -6 -3 -39 -73 vvcurveto
            -143 356 callgsubr
          </CharString>
          <CharString index="192">
            231 callgsubr
            219 callgsubr
          </CharString>
          <CharString index="193">
            -25 -31 -3 -7 -20 return
          </CharString>
          <CharString index="194">
            rmoveto
            -106 165 rlineto
            47 -31 -29 17 -49 hhcurveto
            -12 -9 -1 -1 -9 hvcurveto
            -54 vlineto
            92 callgsubr
            88 -135 rlineto
            -94 -91 callgsubr
            hlineto
            endchar
          </CharString>
          <CharString index="195">
            175 vlineto
            111 49 63 89 hvcurveto
            368 190 callgsubr
            return
          </CharString>
          <CharString index="196">
            -234 rmoveto
            -42 -17 -33 -63 -64 -12 33 42 vhcurveto
            234 vlineto
            42 13 33 return
          </CharString>
          <CharString index="197">
            292 callgsubr
            -30 -52 hlineto
            -133 85 -37 103 44 44 6 5 return
          </CharString>
          <CharString index="198">
            -46 callgsubr
            172 callsubr
            return
          </CharString>
          <CharString index="199">
            -93 -76 vlineto
            -100 -47 -41 -83 hvcurveto
            return
          </CharString>
          <CharString index="200">
            27 -19 -35 18 -54 hhcurveto
            return
          </CharString>
          <CharString index="201">
            121 529 rmoveto
            40 12 29 60 60 11 -28 -41 vhcurveto
            return
          </CharString>
          <CharString index="202">
            8 hhcurveto
            54 vlineto
            return
          </CharString>
          <CharString index="203">
            45 64 vvcurveto
            106 callgsubr
          </CharString>
          <CharString index="204">
            -44 -13 -16 -38 -45 vvcurveto
            -57 vlineto
            -101 74 -44 106 49 35 6 8 29 vhcurveto
            -77 104 callsubr
            54 return
          </CharString>
          <CharString index="205">
            vlineto
            -48 -25 71 callsubr
            8 -29 vhcurveto
            -58 vlineto
            -7 26 24 -47 callgsubr
            return
          </CharString>
          <CharString index="206">
            67 callsubr
            74 vlineto
            201 callsubr
            74 vlineto
            46 return
          </CharString>
          <CharString index="207">
            vlineto
            111 callsubr
            return
          </CharString>
          <CharString index="208">
            hlineto
            -56 callsubr
            -68 vlineto
            -50 -19 return
          </CharString>
          <CharString index="209">
            vlineto
            -80 44 -41 88 87 43 41 80 vhcurveto
            return
          </CharString>
          <CharString index="210">
            39 -41 96 96 39 41 return
          </CharString>
          <CharString index="211">
            62 595 96 return
          </CharString>
          <CharString index="212">
            16 vlineto
            80 -49 39 -68 -29 -21 -8 0 vhcurveto
            -53 vlineto
            0 15 8 28 38 25 -19 -48 vhcurveto
            -14 340 callgsubr
            35 44 vhcurveto
            164 vlineto
            42 18 26 67 vhcurveto
            endchar
          </CharString>
          <CharString index="213">
            82 callgsubr
            15 24 return
          </CharString>
          <CharString index="214">
            -17 callgsubr
            -100 219 callsubr
            return
          </CharString>
          <CharString index="215">
            104 callsubr
            vlineto
            return
          </CharString>
          <CharString index="216">
            -47 -44 -80 hvcurveto
            return
          </CharString>
          <CharString index="217">
            37 vlineto
            -44 callsubr
            endchar
          </CharString>
          <CharString index="218">
            -134 92 -37 104 47 41 -54 callsubr
            return
          </CharString>
          <CharString index="219">
            -5 -9 20 vhcurveto
            -408 return
          </CharString>
          <CharString index="220">
            -46 5 671 rmoveto
            -62 226 vlineto
            -62 -195 rlineto
            -36 -113 -21 -80 -120 vvcurveto
            -101 69 98 vlineto
            118 20 79 36 115 vhcurveto
            66 207 rlineto
            54 vlineto
            endchar
          </CharString>
          <CharString index="221">
            13 24 23 hvcurveto
            return
          </CharString>
          <CharString index="222">
            rmoveto
            -40 -198 rlineto
            34 hlineto
            18 34 44 95 37 vvcurveto
            21 -13 11 -20 vhcurveto
            -136 hmoveto
            -40 -198 rlineto
            35 hlineto
            18 34 43 95 37 vvcurveto
            21 -12 11 -21 vhcurveto
            endchar
          </CharString>
          <CharString index="223">
            hvcurveto
            123 callsubr
          </CharString>
          <CharString index="224">
            -114 -317 142 callgsubr
            return
          </CharString>
          <CharString index="225">
            35 hhcurveto
            98 46 48 80 hvcurveto
            142 288 callsubr
            -16 2 -18 1 -1 vhcurveto
            394 159 rmoveto
            -649 278 callgsubr
          </CharString>
          <CharString index="226">
            465 rmoveto
            -51 callsubr
            return
          </CharString>
          <CharString index="227">
            -413 7 callgsubr
            return
          </CharString>
          <CharString index="228">
            430 128 callsubr
            return
          </CharString>
          <CharString index="229">
            129 callsubr
            101 return
          </CharString>
          <CharString index="230">
            -97 -5 callsubr
          </CharString>
          <CharString index="231">
            297 callgsubr
            104 47 41 return
          </CharString>
          <CharString index="232">
            -179 vlineto
            -82 48 -46 return
          </CharString>
          <CharString index="233">
            -54 120 hlineto
            -19 -11 -11 -20 -40 vvcurveto
            -132 vlineto
            257 callgsubr
            -15 275 callsubr
            return
          </CharString>
          <CharString index="234">
            -106 68 -44 107 57 42 9 6 27 vhcurveto
            57 vlineto
            -7 -34 -32 -8 -60 hhcurveto
            -73 -41 27 66 hvcurveto
            130 vlineto
            -5 22 27 -4 25 hhcurveto
            66 42 24 43 17 hvcurveto
            return
          </CharString>
          <CharString index="235">
            rmoveto
            -129 165 129 hlineto
            -190 return
          </CharString>
          <CharString index="236">
            -54 77 -339 hlineto
            -80 50 -48 return
          </CharString>
          <CharString index="237">
            822 rmoveto
            1 7 10 229 callgsubr
            87 -135 rlineto
            65 hlineto
            -107 165 rlineto
            47 -30 -30 17 -48 hhcurveto
            -12 170 callsubr
            return
          </CharString>
          <CharString index="238">
            vlineto
            -76 41 -51 87 3 vhcurveto
            7 12 1 1 hhcurveto
            57 vlineto
            -67 -24 callgsubr
            return
          </CharString>
          <CharString index="239">
            -91 callsubr
            vlineto
            endchar
          </CharString>
          <CharString index="240">
            -45 10 -35 44 -17 vhcurveto
            -44 -13 -16 275 callsubr
            203 vlineto
            61 -20 262 callsubr
            return
          </CharString>
          <CharString index="241">
            163 callsubr
            -474 -54 93 return
          </CharString>
          <CharString index="242">
            30 265 617 rmoveto
            -431 -191 vlineto
            324 hmoveto
            -68 485 -106 hlineto
            -214 -483 rlineto
            -62 254 -126 66 126 68 vlineto
            endchar
          </CharString>
          <CharString index="243">
            rmoveto
            -40 -198 rlineto
            38 hlineto
            17 34 44 95 37 vvcurveto
            21 -13 11 -20 vhcurveto
            endchar
          </CharString>
          <CharString index="244">
            -29 171 callsubr
            return
          </CharString>
          <CharString index="245">
            12 29 56 65 8 -29 return
          </CharString>
          <CharString index="246">
            -11 26 1 vvcurveto
            return
          </CharString>
          <CharString index="247">
            58 332 671 rmoveto
            -141 -336 147 -335 rlineto
            76 hlineto
            -150 337 142 334 rlineto
            -336 hmoveto
            -671 67 671 vlineto
            return
          </CharString>
          <CharString index="248">
            134 rmoveto
            -105 callgsubr
            return
          </CharString>
          <CharString index="249">
            hlineto
            -97 -43 callsubr
            return
          </CharString>
          <CharString index="250">
            123 callgsubr
            41 hvcurveto
            return
          </CharString>
          <CharString index="251">
            hlineto
            167 callsubr
            return
          </CharString>
          <CharString index="252">
            -212 -19 callgsubr
            return
          </CharString>
          <CharString index="253">
            -236 vlineto
            62 callsubr
            return
          </CharString>
          <CharString index="254">
            -198 10 callsubr
            196 vlineto
            41 14 32 63 return
          </CharString>
          <CharString index="255">
            vlineto
            151 callsubr
          </CharString>
          <CharString index="256">
            61 59 vlineto
            53 29 32 247 callgsubr
            -91 228 callsubr
            44 47 19 25 3 6 rlinecurve
            return
          </CharString>
          <CharString index="257">
            -99 -47 -40 -80 hvcurveto
            182 callsubr
            return
          </CharString>
          <CharString index="258">
            -130 74 -59 151 68 71 16 12 42 vhcurveto
            -21 35 45 -8 48 hhcurveto
            47 41 6 6 23 116 callsubr
          </CharString>
          <CharString index="259">
            213 callgsubr
            -30 -11 -18 -23 vhcurveto
            return
          </CharString>
          <CharString index="260">
            77 hlineto
            192 213 rlineto
            -213 104 callsubr
            return
          </CharString>
          <CharString index="261">
            212 callgsubr
            -18 -18 -53 -5 vhcurveto
            return
          </CharString>
          <CharString index="262">
            21 22 -10 15 -28 -27 -10 -15 -22 return
          </CharString>
          <CharString index="263">
            159 callsubr
            hlineto
            return
          </CharString>
          <CharString index="264">
            -258 hlineto
            311 callsubr
            return
          </CharString>
          <CharString index="265">
            -103 hlineto
            233 callsubr
            return
          </CharString>
          <CharString index="266">
            -86 callgsubr
            124 return
          </CharString>
          <CharString index="267">
            -54 102 292 callsubr
            return
          </CharString>
          <CharString index="268">
            vlineto
            45 9 25 0 vhcurveto
            return
          </CharString>
          <CharString index="269">
            -36 -11 0 vhcurveto
            106 return
          </CharString>
          <CharString index="270">
            171 -197 vlineto
            -39 -12 -29 -55 -5 -7 0 1 -6 vhcurveto
            -57 vlineto
            -1 8 8 -1 8 hhcurveto
            89 34 54 71 hvcurveto
            198 86 54 return
          </CharString>
          <CharString index="271">
            192 -16 callgsubr
            330 callsubr
            return
          </CharString>
          <CharString index="272">
            886 -21 callsubr
            -910 -54 752 221 callsubr
            return
          </CharString>
          <CharString index="273">
            vvcurveto
            47 10 27 57 58 4 -28 -47 vhcurveto
            -52 vlineto
            -79 -39 -16 -82 vhcurveto
            return
          </CharString>
          <CharString index="274">
            184 callsubr
            -19 -17 return
          </CharString>
          <CharString index="275">
            20 33 76 callsubr
            return
          </CharString>
          <CharString index="276">
            250 callsubr
            -18 30 return
          </CharString>
          <CharString index="277">
            -10 216 callgsubr
            return
          </CharString>
          <CharString index="278">
            0 vhcurveto
            62 hlineto
            0 return
          </CharString>
          <CharString index="279">
            145 vlineto
            39 return
          </CharString>
          <CharString index="280">
            103 47 42 -54 callsubr
            return
          </CharString>
          <CharString index="281">
            288 callgsubr
            24 vhcurveto
            -97 return
          </CharString>
          <CharString index="282">
            hlineto
            -88 -44 -39 -80 hvcurveto
            return
          </CharString>
          <CharString index="283">
            rmoveto
            -45 220 45 vlineto
            return
          </CharString>
          <CharString index="284">
            16 -17 -31 14 -41 hhcurveto
            -108 -44 -64 -88 hvcurveto
            -145 vlineto
            -89 48 -66 113 113 48 66 89 vhcurveto
            161 vlineto
            return
          </CharString>
          <CharString index="285">
            -41 -6 -44 hhcurveto
            -95 -34 204 callsubr
            return
          </CharString>
          <CharString index="286">
            44 21 29 69 vhcurveto
            return
          </CharString>
          <CharString index="287">
            -31 -67 -36 -27 return
          </CharString>
          <CharString index="288">
            26 rmoveto
            -44 -18 -32 -71 -70 -18 32 44 vhcurveto
            41 vlineto
            41 20 30 64 1 vhcurveto
            5 hlineto
            39 1 30 7 19 6 rrcurveto
            return
          </CharString>
          <CharString index="289">
            -38 322 callsubr
            18 hlineto
            68 17 -27 -40 hvcurveto
            -35 vlineto
            -52 -37 -21 -70 -50 -47 7 10 -38 vhcurveto
            -60 vlineto
            return
          </CharString>
          <CharString index="290">
            vlineto
            -53 -25 -13 -74 vhcurveto
            -31 -52 hlineto
            -133 85 -37 104 43 44 6 5 32 vhcurveto
            -86 59 callgsubr
          </CharString>
          <CharString index="291">
            -56 callsubr
            -68 vlineto
            -51 return
          </CharString>
          <CharString index="292">
            -346 vlineto
            295 callsubr
            return
          </CharString>
          <CharString index="293">
            vlineto
            -82 51 -41 95 -2 vhcurveto
            -156 -150 rlineto
            81 hlineto
            164 161 5 2 rlineto
            -110 58 -71 callgsubr
            return
          </CharString>
          <CharString index="294">
            -8 -26 -35 -7 -42 hhcurveto
            -84 -19 29 52 hvcurveto
            return
          </CharString>
          <CharString index="295">
            49 86 hvcurveto
            180 -86 callgsubr
            return
          </CharString>
          <CharString index="296">
            rmoveto
            -27 170 callgsubr
            return
          </CharString>
          <CharString index="297">
            346 callsubr
            18 -30 return
          </CharString>
          <CharString index="298">
            -63 -64 220 callgsubr
            return
          </CharString>
          <CharString index="299">
            3 3 -18 vhcurveto
            return
          </CharString>
          <CharString index="300">
            344 callgsubr
            18 54 callsubr
            -18 -27 -67 1 vhcurveto
            -57 vlineto
            1 10 -1 7 hhcurveto
            87 return
          </CharString>
          <CharString index="301">
            -54 267 210 callgsubr
            return
          </CharString>
          <CharString index="302">
            -24 -82 vvcurveto
            -15 3 -13 0 vhcurveto
            54 hlineto
            -10 58 43 9 50 -23 86 -38 rcurveline
            71 -32 75 24 83 vvcurveto
            15 return
          </CharString>
          <CharString index="303">
            -40 -15 -30 -56 vhcurveto
            -8 -14 2 -6 hhcurveto
            -57 227 callgsubr
            276 return
          </CharString>
          <CharString index="304">
            6 rlinecurve
            -29 callsubr
            234 vlineto
            179 callsubr
            endchar
          </CharString>
          <CharString index="305">
            -44 16 -32 31 -20 vhcurveto
            -31 -19 -16 -32 -45 vvcurveto
            -87 vlineto
            return
          </CharString>
          <CharString index="306">
            1 9 1 10 11 vvcurveto
            142 vlineto
            47 -8 23 0 vhcurveto
            return
          </CharString>
          <CharString index="307">
            -41 callsubr
            endchar
          </CharString>
          <CharString index="308">
            80 -15 callgsubr
            return
          </CharString>
          <CharString index="309">
            -17 -28 -21 hvcurveto
            -61 callgsubr
            -198 vlineto
            -15 callsubr
            vhcurveto
            return
          </CharString>
          <CharString index="310">
            154 callsubr
            52 -9 -42 31 -79 hhcurveto
            537 181 rmoveto
            return
          </CharString>
          <CharString index="311">
            36 77 hvcurveto
            1 vlineto
            79 51 34 82 hvcurveto
            return
          </CharString>
          <CharString index="312">
            430 rmoveto
            -130 165 130 hlineto
            return
          </CharString>
          <CharString index="313">
            vlineto
            41 18 25 66 vhcurveto
            136 146 return
          </CharString>
          <CharString index="314">
            hhcurveto
            -76 -46 23 69 hvcurveto
            return
          </CharString>
          <CharString index="315">
            94 -149 rlineto
            68 hlineto
            return
          </CharString>
          <CharString index="316">
            -22 146 776 rmoveto
            -62 5 -70 0 vhcurveto
            0 -42 5 -60 vhcurveto
            -54 vlineto
            60 42 5 0 hvcurveto
            return
          </CharString>
          <CharString index="317">
            vlineto
            -413 vmoveto
            -98 callsubr
            return
          </CharString>
          <CharString index="318">
            -65 1 -16 25 40 vvcurveto
            6 vlineto
            41 17 24 66 vhcurveto
            return
          </CharString>
          <CharString index="319">
            80 -41 262 callgsubr
            return
          </CharString>
          <CharString index="320">
            192 callgsubr
            338 return
          </CharString>
          <CharString index="321">
            vlineto
            44 27 32 71 return
          </CharString>
          <CharString index="322">
            153 -274 return
          </CharString>
          <CharString index="323">
            34 16 24 58 vhcurveto
            20 48 -19 hlineto
            -58 1 -11 23 35 vvcurveto
            9 vlineto
            43 20 16 39 vhcurveto
            return
          </CharString>
          <CharString index="324">
            0 8 hhcurveto
            88 348 callsubr
            -94 -29 -23 -4 -6 -18 vhcurveto
            100 return
          </CharString>
          <CharString index="325">
            -1 -179 -199 rcurveline
            277 callsubr
          </CharString>
          <CharString index="326">
            -50 -51 -79 hvcurveto
            return
          </CharString>
          <CharString index="327">
            294 callsubr
            -438 -54 286 326 callgsubr
            return
          </CharString>
          <CharString index="328">
            -130 hlineto
            -51 callsubr
            return
          </CharString>
          <CharString index="329">
            -99 48 99 49 45 -49 307 vlineto
            -48 -307 rmoveto
            -137 hlineto
            137 268 rlineto
            return
          </CharString>
          <CharString index="330">
            -55 callgsubr
            297 callgsubr
            103 return
          </CharString>
          <CharString index="331">
            -29 -54 269 callgsubr
            8 0 9 hhcurveto
            87 35 53 71 hvcurveto
            return
          </CharString>
          <CharString index="332">
            -166 70 719 rmoveto
            -719 68 719 vlineto
            return
          </CharString>
          <CharString index="333">
            rmoveto
            -54 303 257 callsubr
            return
          </CharString>
          <CharString index="334">
            103 hlineto
            71 26 -37 -56 hvcurveto
            -267 152 rmoveto
            return
          </CharString>
          <CharString index="335">
            vlineto
            -275 -286 rlineto
            81 hlineto
            130 134 return
          </CharString>
          <CharString index="336">
            -41 -11 -24 263 callgsubr
            return
          </CharString>
          <CharString index="337">
            vlineto
            294 callgsubr
            return
          </CharString>
          <CharString index="338">
            18 250 callgsubr
            return
          </CharString>
          <CharString index="339">
            80 1 50 34 83 vvcurveto
            return
          </CharString>
          <CharString index="340">
            4 -11 -30 9 -46 hhcurveto
            return
          </CharString>
          <CharString index="341">
            0 -8 -23 -47 vvcurveto
            return
          </CharString>
          <CharString index="342">
            -37 -44 vvcurveto
            -35 vlineto
            return
          </CharString>
          <CharString index="343">
            -121 -183 121 -183 rlineto
            70 hlineto
            -122 183 122 183 rlineto
            return
          </CharString>
          <CharString index="344">
            47 82 rmoveto
            -41 -208 rlineto
            40 hlineto
            22 42 47 98 37 vvcurveto
            21 -14 10 -20 vhcurveto
            return
          </CharString>
          <CharString index="345">
            -671 rlineto
            51 hlineto
            331 671 rlineto
            endchar
          </CharString>
          <CharString index="346">
            -18 26 40 hvcurveto
            return
          </CharString>
          <CharString index="347">
            340 451 rmoveto
            144 103 54 -467 -54 302 -91 -86 vlineto
            -92 -47 return
          </CharString>
          <CharString index="348">
            12 rmoveto
            -30 -10 -18 233 callgsubr
            11 17 23 23 -11 18 -30 hvcurveto
            return
          </CharString>
          <CharString index="349">
            vlineto
            60 callsubr
          </CharString>
          <CharString index="350">
            vlineto
            41 16 23 55 vhcurveto
            58 302 callsubr
            return
          </CharString>
          <CharString index="351">
            -97 -91 callgsubr
            -97 return
          </CharString>
          <CharString index="352">
            -6 -18 -44 -9 -46 hhcurveto
            -77 -46 23 71 hvcurveto
            return
          </CharString>
          <CharString index="353">
            10 hhcurveto
            86 39 53 73 hvcurveto
            return
          </CharString>
          <CharString index="354">
            231 callsubr
            hvcurveto
            return
          </CharString>
          <CharString index="355">
            0 -7 -23 -47 vvcurveto
            return
          </CharString>
          <CharString index="356">
            37 24 3 6 26 return
          </CharString>
          <CharString index="357">
            -10 -17 -23 -23 10 return
          </CharString>
          <CharString index="358">
            41 14 28 64 return
          </CharString>
          <CharString index="359">
            -64 -14 27 42 return
          </CharString>
          <CharString index="360">
            6 7 -26 -42 hvcurveto
            -132 vlineto
            -41 -17 -32 -68 -23 -25 4 5 -20 vhcurveto
            return
          </CharString>
          <CharString index="361">
            -96 -39 -41 -78 hvcurveto
            -76 vlineto
            -78 37 -46 96 96 37 47 79 vhcurveto
            139 return
          </CharString>
          <CharString index="362">
            -47 89 vhcurveto
            20 58 hlineto
            -67 -2 -20 27 42 vvcurveto
            247 vlineto
            43 23 32 return
          </CharString>
          <CharString index="363">
            58 10 263 callsubr
            return
          </CharString>
          <CharString index="364">
            -103 vlineto
            -17 callgsubr
            return
          </CharString>
          <CharString index="365">
            vlineto
            41 11 23 63 vhcurveto
            75 hlineto
            return
          </CharString>
          <CharString index="366">
            vlineto
            80 -40 45 -91 -92 return
          </CharString>
          <CharString index="367">
            271 callgsubr
            -5 return
          </CharString>
          <CharString index="368">
            hhcurveto
            -71 272 callsubr
            return
          </CharString>
          <CharString index="369">
            41 -53 13 vhcurveto
            109 return
          </CharString>
          <CharString index="370">
            30 0 vhcurveto
            109 54 return
          </CharString>
          <CharString index="371">
            vlineto
            41 11 24 return
          </CharString>
          <CharString index="372">
            0 33 11 40 return
          </CharString>
          <CharString index="373">
            -240 rmoveto
            299 callgsubr
            return
          </CharString>
          <CharString index="374">
            rmoveto
            181 -140 rlineto
            -47 -1 -23 -25 -66 261 callsubr
            return
          </CharString>
          <CharString index="375">
            -64 33 -43 60 -17 vhcurveto
            -79 -1 -29 -25 -82 hhcurveto
            -79 -32 18 58 hvcurveto
            return
          </CharString>
          <CharString index="376">
            rmoveto
            -30 308 callgsubr
            return
          </CharString>
          <CharString index="377">
            -165 rmoveto
            165 return
          </CharString>
          <CharString index="378">
            23 358 callgsubr
            return
          </CharString>
          <CharString index="379">
            -20 29 45 hvcurveto
            return
          </CharString>
          <CharString index="380">
            -54 78 -349 return
          </CharString>
          <CharString index="381">
            197 94 callsubr
            return
          </CharString>
          <CharString index="382">
            235 callsubr
            -104 55 157 callgsubr
            return
          </CharString>
          <CharString index="383">
            -103 vlineto
            107 callsubr
            -174 vlineto
            return
          </CharString>
          <CharString index="384">
            153 callsubr
            vlineto
            endchar
          </CharString>
          <CharString index="385">
            39 108 hvcurveto
            return
          </CharString>
          <CharString index="386">
            vlineto
            -80 48 -41 return
          </CharString>
          <CharString index="387">
            -2 -48 hhcurveto
            -85 -23 34 46 hvcurveto
            57 vlineto
            41 21 25 68 vhcurveto
            return
          </CharString>
          <CharString index="388">
            rmoveto
            -88 -67 rlineto
            -59 vlineto
            97 76 rlineto
            -401 50 451 vlineto
            return
          </CharString>
          <CharString index="389">
            58 44 -78 callsubr
            -33 -9 -58 hhcurveto
            -73 return
          </CharString>
          <CharString index="390">
            75 callsubr
            314 return
          </CharString>
          <CharString index="391">
            32 68 67 18 -31 -41 vhcurveto
            -144 vlineto
            -41 -18 -31 -67 -32 return
          </CharString>
          <CharString index="392">
            rmoveto
            54 -476 -54 207 -89 vlineto
            -80 -9 -37 -46 -72 vvcurveto
            return
          </CharString>
          <CharString index="393">
            hlineto
            318 callgsubr
            endchar
          </CharString>
          <CharString index="394">
            179 callgsubr
            -93 -33 -48 -84 return
          </CharString>
          <CharString index="395">
            vlineto
            79 -47 50 -100 -100 -47 -50 -79 return
          </CharString>
          <CharString index="396">
            -236 vlineto
            -92 65 -50 103 return
          </CharString>
          <CharString index="397">
            34 -7 -5 21 vhcurveto
            -434 return
          </CharString>
          <CharString index="398">
            hhcurveto
            -73 -40 26 63 hvcurveto
            return
          </CharString>
          <CharString index="399">
            hlineto
            234 callsubr
            return
          </CharString>
          <CharString index="400">
            hhcurveto
            -68 -23 31 41 hvcurveto
            return
          </CharString>
          <CharString index="401">
            rmoveto
            150 90 54 return
          </CharString>
          <CharString index="402">
            -80 43 -50 100 100 return
          </CharString>
          <CharString index="403">
            -54 77 -346 return
          </CharString>
          <CharString index="404">
            hlineto
            154 callsubr
            return
          </CharString>
          <CharString index="405">
            248 315 callgsubr
            return
          </CharString>
          <CharString index="406">
            vlineto
            -77 31 -32 56 -45 vhcurveto
            -117 -102 81 -11 84 76 return
          </CharString>
          <CharString index="407">
            -54 291 -92 -64 vlineto
            -100 -46 -42 -81 hvcurveto
            -165 vlineto
            return
          </CharString>
          <CharString index="408" raw="1">
            1efb22c9 0b  
          </CharString>
          <CharString index="409">
            hlineto
            1 -2 11 return
          </CharString>
          <CharString index="410">
            -128 326 -21 callsubr
            -358 -54 358 hlineto
            return
          </CharString>
          <CharString index="411">
            30 10 17 23 24 -10 17 -30 -31 -10 -17 -24 vhcurveto
            return
          </CharString>
          <CharString index="412">
            -55 -18 callsubr
            119 return
          </CharString>
          <CharString index="413">
            -10 -34 -48 -8 -44 hhcurveto
            -69 -38 27 56 hvcurveto
            89 vlineto
            return
          </CharString>
          <CharString index="414">
            -148 40 353 rmoveto
            -56 150 56 vlineto
            endchar
          </CharString>
          <CharString index="415">
            -9 -59 291 callsubr
            return
          </CharString>
          <CharString index="416">
            -57 -58 57 -510 68 510 return
          </CharString>
          <CharString index="417">
            -105 hlineto
            176 callgsubr
            return
          </CharString>
          <CharString index="418">
            -88 109 callgsubr
            return
          </CharString>
          <CharString index="419">
            hvcurveto
            88 -135 rlineto
            return
          </CharString>
          <CharString index="420">
            154 rmoveto
            -5 return
          </CharString>
          <CharString index="421" raw="1">
            7b391e34 2706fb16 d250f727 0b
          </CharString>
          <CharString index="422">
            hhcurveto
            45 38 9 4 10 hvcurveto
            -83 104 callsubr
            return
          </CharString>
          <CharString index="423">
            0 42 -5 59 vhcurveto
            54 vlineto
            -59 -42 -5 0 hvcurveto
            return
          </CharString>
          <CharString index="424">
            -413 rmoveto
            -42 -11 -23 191 callsubr
            return
          </CharString>
          <CharString index="425">
            vlineto
            143 callsubr
            return
          </CharString>
          <CharString index="426">
            92 339 154 rmoveto
            322 callgsubr
            return
          </CharString>
          <CharString index="427">
            -5 -28 -59 -15 -16 3 0 vhcurveto
            -54 vlineto
            0 14 return
          </CharString>
          <CharString index="428">
            0 vhcurveto
            60 hlineto
            0 -4 return
          </CharString>
          <CharString index="429">
            279 callsubr
            98 vhcurveto
            return
          </CharString>
          <CharString index="430">
            126 vlineto
            41 return
          </CharString>
          <CharString index="431">
            hvcurveto
            -126 vlineto
            return
          </CharString>
          <CharString index="432">
            -89 vlineto
            -79 -9 -36 -46 -71 vvcurveto
            -256 vlineto
            return
          </CharString>
          <CharString index="433">
            -54 304 -93 -78 vlineto
            -102 -48 -41 -83 hvcurveto
            return
          </CharString>
          <CharString index="434">
            137 callsubr
            -5 28 24 vvcurveto
            40 return
          </CharString>
          <CharString index="435">
            28 43 vhcurveto
            166 vlineto
            42 21 27 68 11 return
          </CharString>
          <CharString index="436">
            -17 -34 -44 -94 -38 vvcurveto
            -21 13 -11 20 vhcurveto
            return
          </CharString>
          <CharString index="437">
            31 26 -5 -5 20 vhcurveto
            158 212 rmoveto
            return
          </CharString>
          <CharString index="438">
            rlineto
            53 -18 -20 21 -46 hhcurveto
            -11 -10 -1 -1 return
          </CharString>
          <CharString index="439">
            47 96 -42 callsubr
            47 -12 23 0 vhcurveto
            return
          </CharString>
          <CharString index="440">
            -10 -29 -24 -4 -32 hhcurveto
            -66 -23 27 49 hvcurveto
            return
          </CharString>
          <CharString index="441">
            hhcurveto
            -187 -134 -35 -160 hvcurveto
            endchar
          </CharString>
          <CharString index="442">
            46 hvcurveto
            97 -14 callgsubr
            endchar
          </CharString>
          <CharString index="443">
            rmoveto
            354 56 -354 hlineto
            return
          </CharString>
          <CharString index="444">
            hlineto
            -130 71 -58 147 return
          </CharString>
          <CharString index="445">
            432 vlineto
            265 callsubr
            return
          </CharString>
          <CharString index="446">
            357 callgsubr
            -33 -41 -6 return
          </CharString>
          <CharString index="447">
            109 callgsubr
            -177 vlineto
            return
          </CharString>
          <CharString index="448">
            264 callgsubr
            6 return
          </CharString>
          <CharString index="449">
            -27 -44 hvcurveto
            -67 vlineto
            return
          </CharString>
          <CharString index="450">
            -68 115 116 return
          </CharString>
          <CharString index="451">
            24 19 2 3 16 return
          </CharString>
          <CharString index="452">
            vlineto
            -90 52 -68 return
          </CharString>
          <CharString index="453">
            17 23 23 -10 return
          </CharString>
          <CharString index="454">
            161 40 rlineto
            50 vlineto
            -161 -39 rlineto
            return
          </CharString>
          <CharString index="455">
            35 66 callgsubr
            -47 44 return
          </CharString>
          <CharString index="456">
            -17 -28 -20 hvcurveto
            93 callsubr
            return
          </CharString>
          <CharString index="457">
            25 26 -18 19 -26 -25 -19 -19 -26 vhcurveto
            return
          </CharString>
          <CharString index="458">
            vvcurveto
            47 10 27 56 59 4 -28 -47 vhcurveto
            return
          </CharString>
          <CharString index="459">
            -20 290 callgsubr
            20 27 return
          </CharString>
          <CharString index="460">
            819 rmoveto
            -64 hlineto
            -38 -107 rlineto
            44 hlineto
            return
          </CharString>
          <CharString index="461">
            3 12 1 12 14 vvcurveto
            142 vlineto
            47 return
          </CharString>
          <CharString index="462" raw="1">
            d70a0e   
          </CharString>
          <CharString index="463">
            13 vhcurveto
            109 vlineto
            endchar
          </CharString>
          <CharString index="464">
            -92 -41 -45 -80 return
          </CharString>
          <CharString index="465">
            10 -17 30 30 return
          </CharString>
          <CharString index="466">
            -98 -39 -44 -80 return
          </CharString>
        <CharString name=".notdef">
          378 176 hmoveto
          399 701 -399 hlineto
          59 -55 rmoveto
          281 -591 -281 hlineto
          endchar
        </CharString>
        <CharString name="A">
          63 139 248 -76 callsubr
        </CharString>
        <CharString name="AE">
          284 189 248 rmoveto
          165 373 rlineto
          -373 vlineto
          288 363 rmoveto
          60 -329 vlineto
          -305 -671 rlineto
          71 hlineto
          84 189 rlineto
          191 -189 288 60 -222 248 193 60 -193 243 hlineto
          endchar
        </CharString>
        <CharString name="Aacute">
          63 298 353 callsubr
          -101 -464 -76 callsubr
        </CharString>
        <CharString name="Abreve">
          63 277 819 0 callsubr
          -187 -571 -76 callsubr
        </CharString>
        <CharString name="Acircumflex">
          63 220 776 3 callgsubr
          -45 -464 -76 callsubr
        </CharString>
        <CharString name="Adieresis">
          63 283 728 127 callgsubr
          -11 -480 -76 callsubr
        </CharString>
        <CharString name="Agrave">
          63 234 712 rmoveto
          -38 107 rlineto
          -64 hlineto
          58 -107 rlineto
          -51 -464 -76 callsubr
        </CharString>
        <CharString name="Amacron">
          63 326 788 rmoveto
          -220 -45 220 hlineto
          -187 -495 -76 callsubr
        </CharString>
        <CharString name="Aogonek">
          63 139 248 rmoveto
          78 355 78 -355 rlineto
          123 -248 rmoveto
          -152 671 rlineto
          -96 hlineto
          -153 -671 rlineto
          68 hlineto
          41 189 rlineto
          182 hlineto
          42 -189 rlineto
          31 hlineto
          -33 callsubr
          endchar
        </CharString>
        <CharString name="Aring">
          63 217 801 rmoveto
          22 13 -14 -21 -22 -13 -14 -22 -22 -13 14 22 21 13 14 22 hvcurveto
          -108 vmoveto
          48 26 33 40 40 -26 32 -48 -47 -27 -32 -40 -40 27 -33 47 hvcurveto
          -78 -445 -76 callsubr
        </CharString>
        <CharString name="Atilde">
          63 149 733 rmoveto
          20 7 11 16 vhcurveto
          33 29 -41 46 hhcurveto
          42 23 27 46 hvcurveto
          14 -49 -11 vlineto
          -20 -5 -11 -17 vhcurveto
          1 -28 -32 39 -47 hhcurveto
          -47 -20 -32 -41 hvcurveto
          -14 49 vlineto
          -10 -473 -76 callsubr
        </CharString>
        <CharString name="B">
          94 340 153 rmoveto
          -58 -28 -36 -70 vhcurveto
          -105 248 105 hlineto
          70 28 -36 -58 hvcurveto
          -104 398 rmoveto
          70 28 -35 -59 hvcurveto
          -56 vlineto
          -58 -28 -36 -70 vhcurveto
          -99 244 hlineto
          264 -92 rmoveto
          91 -52 61 -109 vhcurveto
          -170 -671 176 hlineto
          109 52 60 92 hvcurveto
          59 vlineto
          62 -25 46 -56 19 vhcurveto
          52 20 23 45 60 vvcurveto
          endchar
        </CharString>
        <CharString name="C">
          20 60 535 rmoveto
          -399 vlineto
          -88 55 -53 123 45 45 302 callgsubr
          62 vlineto
          144 callgsubr
          394 vlineto
          19 callsubr
          endchar
        </CharString>
        <CharString name="CR">
          -373 endchar
        </CharString>
        <CharString name="Cacute">
          20 241 819 -41 callsubr
          -245 -284 rmoveto
          -399 vlineto
          -88 55 -53 123 45 45 302 callgsubr
          62 vlineto
          144 callgsubr
          394 vlineto
          19 callsubr
          endchar
        </CharString>
        <CharString name="Ccaron">
          20 198 712 -55 callsubr
          -19 -287 rmoveto
          19 callsubr
          -399 187 callgsubr
        </CharString>
        <CharString name="Ccedilla">
          20 356 73 rmoveto
          144 callgsubr
          394 vlineto
          19 callsubr
          -399 vlineto
          -79 45 -51 98 -9 vhcurveto
          -14 -66 45 callsubr
          8 35 rlineto
          44 44 7 9 28 hvcurveto
          endchar
        </CharString>
        <CharString name="D">
          91 175 callgsubr
          88 callsubr
          93 -152 rmoveto
          -365 vlineto
          322 callgsubr
          552 103 hlineto
          71 26 -37 -56 hvcurveto
          endchar
        </CharString>
        <CharString name="Dcaron">
          91 197 712 -55 callsubr
          191 -665 rmoveto
          322 callgsubr
          552 227 callsubr
          -671 88 callsubr
          endchar
        </CharString>
        <CharString name="Dcroat">
          319 callsubr
          245 103 59 -103 248 227 callsubr
          -307 -61 -59 61 -305 88 callsubr
          endchar
        </CharString>
        <CharString name="E">
          23 70 671 111 callgsubr
        </CharString>
        <CharString name="Eacute">
          23 232 819 -41 callsubr
          -226 -148 111 callgsubr
        </CharString>
        <CharString name="Ecaron">
          23 188 712 -55 callsubr
          222 -208 rmoveto
          60 -289 -671 289 60 -222 248 193 60 -193 243 vlineto
          endchar
        </CharString>
        <CharString name="Ecircumflex">
          23 209 776 3 callgsubr
          186 -101 rmoveto
          60 -289 -671 289 60 -222 248 193 60 -193 243 vlineto
          endchar
        </CharString>
        <CharString name="Edieresis">
          23 113 764 -88 callsubr
          -176 -93 111 callgsubr
        </CharString>
        <CharString name="Edotaccent">
          23 70 671 -30 callgsubr
          -177 117 43 callsubr
        </CharString>
        <CharString name="Egrave">
          23 70 671 -30 callgsubr
          -224 148 61 callgsubr
        </CharString>
        <CharString name="Emacron">
          23 70 671 -30 callgsubr
          -254 117 176 callsubr
          endchar
        </CharString>
        <CharString name="Eogonek">
          23 359 611 rmoveto
          60 -289 -671 252 vlineto
          -33 callsubr
          1 60 -222 248 193 60 -193 243 hlineto
          endchar
        </CharString>
        <CharString name="Eth">
          319 callsubr
          240 110 59 -110 253 227 callsubr
          -312 -74 -59 74 -300 88 callsubr
          endchar
        </CharString>
        <CharString name="Euro">
          31 135 249 rmoveto
          156 50 -156 83 156 50 -156 100 hlineto
          19 callsubr
          -103 -53 -50 53 -83 -53 -50 53 -113 187 callgsubr
        </CharString>
        <CharString name="F">
          -4 175 callgsubr
          68 295 202 61 -202 255 212 60 vlineto
          endchar
        </CharString>
        <CharString name="G">
          -20 callgsubr
          endchar
        </CharString>
        <CharString name="Gbreve">
          -20 callgsubr
          228 290 0 callsubr
          endchar
        </CharString>
        <CharString name="H">
          120 355 671 rmoveto
          -312 -217 312 -68 -671 68 299 217 -299 69 671 vlineto
          endchar
        </CharString>
        <CharString name="I">
          -166 175 callgsubr
          68 671 vlineto
          endchar
        </CharString>
        <CharString name="Iacute">
          23 232 819 -41 callsubr
          -226 -148 111 callgsubr
        </CharString>
        <CharString name="Icircumflex">
          -166 70 hmoveto
          68 671 -68 hlineto
          67 148 rmoveto
          -56 hlineto
          -51 -107 rlineto
          43 hlineto
          36 64 36 -64 rlineto
          42 hlineto
          endchar
        </CharString>
        <CharString name="Idieresis">
          -166 175 callgsubr
          68 671 vlineto
          -139 93 30 callsubr
        </CharString>
        <CharString name="Idotaccent">
          -166 175 callgsubr
          68 671 vlineto
          -74 117 43 callsubr
        </CharString>
        <CharString name="Igrave">
          23 70 671 -30 callgsubr
          -223 148 61 callgsubr
        </CharString>
        <CharString name="Imacron">
          -166 175 callgsubr
          68 671 vlineto
          -143 117 176 callsubr
          endchar
        </CharString>
        <CharString name="Iogonek">
          -166 138 671 rmoveto
          -68 -671 32 hlineto
          -33 callsubr
          endchar
        </CharString>
        <CharString name="J">
          71 671 rmoveto
          -475 vlineto
          -99 -14 -63 -22 -78 vhcurveto
          -30 -105 rlineto
          69 hlineto
          31 105 rlineto
          18 60 16 68 113 vvcurveto
          474 vlineto
          endchar
        </CharString>
        <CharString name="K">
          140 callsubr
          endchar
        </CharString>
        <CharString name="L">
          -26 175 callgsubr
          272 59 -204 612 vlineto
          endchar
        </CharString>
        <CharString name="Lacute">
          -26 117 819 -41 callsubr
          -111 -148 rmoveto
          -671 272 59 -204 612 vlineto
          endchar
        </CharString>
        <CharString name="Lcaron">
          -26 76 712 -55 callsubr
          113 -760 rmoveto
          612 -68 -671 272 59 vlineto
          endchar
        </CharString>
        <CharString name="Lslash">
          -25 140 59 rmoveto
          257 vlineto
          97 50 rlineto
          55 vlineto
          -97 -50 rlineto
          300 -68 -336 vlineto
          -56 -29 rlineto
          -55 vlineto
          56 29 rlineto
          -280 272 59 vlineto
          endchar
        </CharString>
        <CharString name="M">
          236 457 671 rmoveto
          -153 -424 -153 424 rlineto
          -81 -671 64 360 hlineto
          104 -7 94 0 vhcurveto
          141 -379 rlineto
          73 hlineto
          139 379 rlineto
          0 -5 -83 -116 vvcurveto
          -359 65 671 vlineto
          endchar
        </CharString>
        <CharString name="N">
          125 361 671 79 callsubr
        </CharString>
        <CharString name="NULL">
          -373 endchar
        </CharString>
        <CharString name="Nacute">
          125 267 819 -41 callsubr
          30 73 callgsubr
        </CharString>
        <CharString name="Ncaron">
          125 223 712 -55 callsubr
          189 73 callgsubr
        </CharString>
        <CharString name="Ntilde">
          125 361 671 -58 callsubr
          -98 139 -61 callsubr
        </CharString>
        <CharString name="O">
          56 callsubr
          endchar
        </CharString>
        <CharString name="OE">
          295 244 60 rmoveto
          -71 -26 38 56 hvcurveto
          365 vlineto
          56 26 37 71 vhcurveto
          106 -552 hlineto
          289 551 rmoveto
          60 -398 vlineto
          -110 -51 -62 -89 hvcurveto
          -368 vlineto
          -89 48 -63 111 vhcurveto
          400 60 -222 248 193 60 -193 243 hlineto
          endchar
        </CharString>
        <CharString name="Oacute">
          82 244 819 -41 callsubr
          -248 -296 -83 callsubr
          endchar
        </CharString>
        <CharString name="Ocircumflex">
          82 227 776 3 callgsubr
          137 -563 rmoveto
          -58 -28 -40 -72 -73 -28 40 58 vhcurveto
          373 vlineto
          58 28 39 73 72 28 -39 -58 vhcurveto
          -268 -374 rmoveto
          -90 52 -68 116 115 53 68 90 vhcurveto
          375 vlineto
          90 -53 68 -115 -116 -52 -68 -90 vhcurveto
          endchar
        </CharString>
        <CharString name="Odieresis">
          82 124 764 -88 callsubr
          -197 -241 -83 callsubr
          endchar
        </CharString>
        <CharString name="Ograve">
          56 callsubr
          -187 297 61 callgsubr
        </CharString>
        <CharString name="Ohungarumlaut">
          82 287 819 41 callgsubr
          -203 -296 -83 callsubr
          endchar
        </CharString>
        <CharString name="Omacron">
          82 119 788 176 callsubr
          -279 -265 -83 callsubr
          endchar
        </CharString>
        <CharString name="Oslash">
          82 328 149 rmoveto
          -58 -28 -40 -72 -40 -26 12 20 -16 vhcurveto
          182 428 rlineto
          -201 11 rmoveto
          58 28 39 73 39 26 -11 -20 16 vhcurveto
          -182 -428 rlineto
          269 511 rmoveto
          -52 hlineto
          -8 -19 rlineto
          18 -27 -36 11 -45 hhcurveto
          -116 -52 -68 -90 hvcurveto
          -375 vlineto
          -34 8 -31 15 -26 vhcurveto
          -24 -57 rlineto
          52 hlineto
          8 19 rlineto
          -18 27 36 -11 46 hhcurveto
          115 53 68 90 hvcurveto
          375 vlineto
          35 -8 31 -16 25 vhcurveto
          endchar
        </CharString>
        <CharString name="Otilde">
          56 callsubr
          -26 288 -61 callsubr
        </CharString>
        <CharString name="P">
          65 175 callgsubr
          68 232 93 vlineto
          109 52 62 89 hvcurveto
          137 190 callgsubr
          94 -154 rmoveto
          -131 vlineto
          -58 -27 -36 -71 vhcurveto
          -89 319 89 hlineto
          71 27 -36 -58 hvcurveto
          endchar
        </CharString>
        <CharString name="Q">
          82 127 522 rmoveto
          58 28 39 73 72 28 -39 -58 vhcurveto
          -373 vlineto
          -58 -28 -40 -72 -73 -28 40 58 vhcurveto
          314 -250 rmoveto
          -107 118 rlineto
          42 28 20 48 55 vvcurveto
          375 vlineto
          90 -53 68 -115 -116 -52 -68 -90 vhcurveto
          -375 345 callsubr
          116 16 14 1 3 13 vhcurveto
          86 -95 rlineto
          endchar
        </CharString>
        <CharString name="R">
          83 137 330 -8 callsubr
        </CharString>
        <CharString name="Racute">
          83 307 353 callsubr
          -112 -382 -8 callsubr
        </CharString>
        <CharString name="Rcaron">
          83 196 712 -55 callsubr
          -8 -489 -8 callsubr
        </CharString>
        <CharString name="S">
          13 28 536 -71 callsubr
          endchar
        </CharString>
        <CharString name="Sacute">
          13 209 819 -41 callsubr
          -245 -283 -71 callsubr
          endchar
        </CharString>
        <CharString name="Scaron">
          13 171 712 -55 callsubr
          36 -429 rmoveto
          -42 23 -17 25 46 vvcurveto
          50 vlineto
          52 33 27 71 50 47 -7 -11 30 vhcurveto
          65 vlineto
          8 -27 -46 8 -55 hhcurveto
          -115 -57 -54 -86 hvcurveto
          -59 vlineto
          -68 31 -41 56 -31 vhcurveto
          115 -63 rlineto
          42 -22 13 -22 -44 vvcurveto
          -43 vlineto
          -50 -32 -36 -87 -50 -51 11 12 -32 vhcurveto
          -65 vlineto
          -10 27 52 -10 55 hhcurveto
          127 60 55 89 hvcurveto
          54 vlineto
          63 -27 40 -55 29 vhcurveto
          endchar
        </CharString>
        <CharString name="T">
          -25 339 671 116 callgsubr
        </CharString>
        <CharString name="Tcaron">
          -25 145 712 -55 callsubr
          245 -148 116 callgsubr
        </CharString>
        <CharString name="Thorn">
          55 334 276 rmoveto
          -58 -27 -35 -71 vhcurveto
          -90 306 90 hlineto
          71 27 -36 -58 hvcurveto
          -188 154 rmoveto
          122 -66 -671 66 122 93 vlineto
          109 52 62 89 hvcurveto
          125 190 callgsubr
          endchar
        </CharString>
        <CharString name="U">
          37 callgsubr
          endchar
        </CharString>
        <CharString name="Uacute">
          92 249 819 -41 callsubr
          19 -148 -64 callsubr
          endchar
        </CharString>
        <CharString name="Ucircumflex">
          92 232 776 3 callgsubr
          136 -41 -64 callsubr
          endchar
        </CharString>
        <CharString name="Udieresis">
          92 128 764 -88 callsubr
          71 -93 -64 callsubr
          endchar
        </CharString>
        <CharString name="Ugrave">
          37 callgsubr
          -248 148 61 callgsubr
        </CharString>
        <CharString name="Uhungarumlaut">
          37 callgsubr
          -116 148 41 callgsubr
          endchar
        </CharString>
        <CharString name="Umacron">
          37 callgsubr
          -278 117 176 callsubr
          endchar
        </CharString>
        <CharString name="Uogonek">
          92 332 671 rmoveto
          -522 vlineto
          -58 -27 -40 -73 -72 -28 40 58 vhcurveto
          522 -67 -523 345 callsubr
          115 13 12 1 1 11 vhcurveto
          -24 -25 -16 -32 -33 vvcurveto
          -44 27 -23 54 vhcurveto
          14 46 -12 hlineto
          -25 -12 10 26 32 18 34 28 24 hvcurveto
          55 26 25 52 63 vvcurveto
          523 vlineto
          endchar
        </CharString>
        <CharString name="Uring">
          92 161 766 -7 callsubr
          62 -95 -64 callsubr
          endchar
        </CharString>
        <CharString name="V">
          44 333 671 rmoveto
          -71 -335 -18 -90 -20 -105 -15 -74 rlinecurve
          -16 74 -20 104 -18 91 -72 335 rcurveline
          -70 hlineto
          147 -671 rlineto
          97 hlineto
          146 671 rlineto
          endchar
        </CharString>
        <CharString name="W">
          236 522 671 rmoveto
          -66 -408 rlineto
          -12 -70 -13 -106 0 vvcurveto
          0 -14 106 -11 70 vhcurveto
          -65 408 rlineto
          -71 hlineto
          -66 -407 rlineto
          -15 -89 -11 -89 0 vvcurveto
          0 -10 90 -14 87 vhcurveto
          -67 408 rlineto
          -66 hlineto
          112 -671 rlineto
          84 hlineto
          58 338 rlineto
          20 118 10 109 0 vvcurveto
          0 10 -106 21 -122 vhcurveto
          57 -337 rlineto
          83 hlineto
          112 671 rlineto
          endchar
        </CharString>
        <CharString name="X">
          16 302 671 rmoveto
          -107 -259 -108 259 rlineto
          -74 hlineto
          146 -336 -146 -335 rlineto
          74 hlineto
          108 257 107 -257 rlineto
          74 hlineto
          -147 335 147 336 rlineto
          endchar
        </CharString>
        <CharString name="Y">
          33 333 671 32 callgsubr
          endchar
        </CharString>
        <CharString name="Yacute">
          33 333 671 32 callgsubr
          -185 148 200 callsubr
        </CharString>
        <CharString name="Ydieresis">
          33 95 764 -88 callsubr
          105 -93 32 callgsubr
          endchar
        </CharString>
        <CharString name="Z">
          183 callgsubr
          endchar
        </CharString>
        <CharString name="Zacute">
          8 204 819 -41 callsubr
          -234 -148 rmoveto
          -60 245 vlineto
          100 callgsubr
          59 vlineto
          endchar
        </CharString>
        <CharString name="Zcaron">
          8 166 712 -55 callsubr
          237 -148 rmoveto
          -318 -60 245 hlineto
          100 callgsubr
          endchar
        </CharString>
        <CharString name="Zdotaccent">
          183 callgsubr
          -201 117 43 callsubr
        </CharString>
        <CharString name="a">
          -97 callgsubr
          endchar
        </CharString>
        <CharString name="aacute">
          -97 callgsubr
          -72 438 200 callsubr
        </CharString>
        <CharString name="abreve">
          -97 callgsubr
          -22 438 0 callsubr
          endchar
        </CharString>
        <CharString name="acircumflex">
          52 215 676 3 callgsubr
          115 -520 rmoveto
          -21 -25 -40 -19 -47 hhcurveto
          -62 -21 27 52 hvcurveto
          31 vlineto
          45 16 24 62 18 vhcurveto
          117 32 rlineto
          -235 209 rmoveto
          10 29 51 10 49 hhcurveto
          85 21 -29 -52 hvcurveto
          -88 vlineto
          -141 -39 rlineto
          -84 -24 -37 -45 -68 vvcurveto
          -33 vlineto
          -85 41 -51 98 66 30 21 24 28 vhcurveto
          -41 65 429 vlineto
          90 -47 54 -122 -53 -51 -9 -9 -28 vhcurveto
          endchar
        </CharString>
        <CharString name="acute">
          -23 162 719 200 callsubr
        </CharString>
        <CharString name="adieresis">
          -97 callgsubr
          -188 383 30 callsubr
        </CharString>
        <CharString name="ae">
          276 329 523 rmoveto
          32 -26 -45 18 -68 hhcurveto
          -53 -51 -10 -9 -27 hvcurveto
          -64 vlineto
          10 29 51 10 49 hhcurveto
          86 20 -29 -50 hvcurveto
          -88 vlineto
          -141 -41 rlineto
          -84 -24 -36 -45 -68 vvcurveto
          -33 vlineto
          -85 44 -51 98 62 59 19 29 35 vhcurveto
          -32 29 51 -17 73 349 callgsubr
          -29 -40 -9 -47 hhcurveto
          -88 -38 30 59 hvcurveto
          103 259 174 208 callgsubr
          -62 -44 -27 -28 -23 vhcurveto
          -34 -435 rmoveto
          -21 -26 -41 -15 -46 hhcurveto
          -61 -22 26 53 hvcurveto
          31 vlineto
          45 16 24 62 18 vhcurveto
          118 33 rlineto
          258 140 rmoveto
          -115 -193 115 vlineto
          57 28 40 70 70 25 -40 -57 vhcurveto
          endchar
        </CharString>
        <CharString name="agrave">
          -97 callgsubr
          -168 438 61 callgsubr
        </CharString>
        <CharString name="amacron">
          -97 callgsubr
          -197 407 176 callsubr
          endchar
        </CharString>
        <CharString name="ampersand">
          82 332 149 rmoveto
          -58 -32 -40 -73 -72 -34 40 58 vhcurveto
          69 vlineto
          56 24 41 69 vhcurveto
          118 hlineto
          108 60 rmoveto
          -42 58 -66 -58 -120 hlineto
          -68 -22 39 59 hvcurveto
          51 vlineto
          50 24 38 96 49 44 -9 -11 32 vhcurveto
          66 vlineto
          9 -28 -45 9 -53 hhcurveto
          -132 -55 -62 -87 hvcurveto
          -55 vlineto
          -62 25 -45 52 -20 vhcurveto
          -53 -19 -25 -45 -62 vvcurveto
          -71 vlineto
          -89 59 343 callsubr
          55 68 89 vhcurveto
          167 42 vlineto
          endchar
        </CharString>
        <CharString name="aogonek">
          52 294 92 rmoveto
          -21 -25 -40 -19 -47 hhcurveto
          -62 -21 27 52 hvcurveto
          31 vlineto
          45 16 24 62 18 vhcurveto
          117 32 rlineto
          -235 209 rmoveto
          10 29 51 10 49 hhcurveto
          85 21 -29 -52 hvcurveto
          -88 vlineto
          -141 -39 rlineto
          -84 -24 -37 -45 -68 vvcurveto
          -33 vlineto
          -85 41 -51 98 66 30 21 24 28 vhcurveto
          -41 28 vlineto
          -33 callsubr
          1 429 hlineto
          90 -47 54 -122 -53 -51 -9 -9 -28 vhcurveto
          endchar
        </CharString>
        <CharString name="apostrophemod">
          -216 69 712 136 callsubr
        </CharString>
        <CharString name="approxequal">
          84 358 315 304 callgsubr
          -23 -83 vvcurveto
          -14 3 -14 0 vhcurveto
          54 hlineto
          -10 58 43 10 50 -24 86 -38 rcurveline
          71 -31 75 23 83 vvcurveto
          15 -3 13 0 vhcurveto
          -54 148 304 callgsubr
          195 callsubr
          -3 13 0 vhcurveto
          endchar
        </CharString>
        <CharString name="aring">
          -97 callgsubr
          -159 385 -7 callsubr
          endchar
        </CharString>
        <CharString name="asciicircum">
          -60 305 379 rmoveto
          -106 281 rlineto
          -89 hlineto
          -107 -281 rlineto
          65 hlineto
          86 247 86 -247 rlineto
          endchar
        </CharString>
        <CharString name="asciitilde">
          46 338 393 rmoveto
          10 -58 -39 -11 -54 25 -86 38 rcurveline
          -69 31 -77 195 callsubr
          -2 13 0 vhcurveto
          endchar
        </CharString>
        <CharString name="asterisk">
          120 434 627 rmoveto
          -18 56 -97 -32 -24 -8 -16 -9 -11 -9 rlinecurve
          5 13 4 18 26 vvcurveto
          101 -58 -101 vlineto
          -26 4 -19 5 -13 vhcurveto
          -11 9 -16 10 -25 8 -96 31 rcurveline
          -18 -56 97 -31 24 -8 18 -2 13 1 rlinecurve
          -11 -8 -13 -12 -15 -21 -60 -81 rcurveline
          47 -35 60 83 15 20 7 17 4 13 rlinecurve
          3 -14 8 -16 15 -21 60 -82 rcurveline
          47 35 -60 82 -15 20 -14 13 -11 7 rlinecurve
          14 18 2 8 25 hvcurveto
          endchar
        </CharString>
        <CharString name="at">
          481 506 126 rmoveto
          0 -33 -29 -60 -42 -25 17 45 vhcurveto
          15 vlineto
          50 25 11 45 14 vhcurveto
          90 27 rlineto
          11 -388 rmoveto
          55 -86 vlineto
          -228 -69 125 205 206 68 125 229 230 68 -115 -206 -156 -39 -44 -56 -48 -23 22 56 hvcurveto
          227 vlineto
          73 -38 50 -94 -44 -44 -8 -9 -34 vhcurveto
          -54 vlineto
          12 51 30 6 41 hhcurveto
          61 14 -30 -41 hvcurveto
          -56 vlineto
          -106 -33 rlineto
          -69 -22 -46 -28 -75 vvcurveto
          -14 vlineto
          -73 45 -40 78 65 37 21 10 15 vhcurveto
          -30 18 35 -19 55 hhcurveto
          98 59 69 186 240 -92 136 -267 -262 -96 -146 -240 -239 92 -146 266 hvcurveto
          endchar
        </CharString>
        <CharString name="atilde">
          -97 callgsubr
          -9 429 -61 callsubr
        </CharString>
        <CharString name="b">
          74 70 719 rmoveto
          -719 169 vlineto
          88 60 51 97 hvcurveto
          290 vlineto
          86 -53 47 -81 -46 -46 -16 -9 -24 vhcurveto
          173 vlineto
          182 -287 rmoveto
          -280 vlineto
          -62 -35 -28 -61 vhcurveto
          -85 421 hlineto
          12 33 35 12 38 hhcurveto
          47 28 -23 -52 hvcurveto
          endchar
        </CharString>
        <CharString name="backslash">
          15 32 783 rmoveto
          270 -914 rlineto
          61 hlineto
          -270 914 rlineto
          endchar
        </CharString>
        <CharString name="bar">
          -166 77 801 rmoveto
          -950 53 950 vlineto
          endchar
        </CharString>
        <CharString name="braceleft">
          -24 198 654 rmoveto
          41 21 27 62 vhcurveto
          14 58 -16 hlineto
          -91 -50 -49 -78 hvcurveto
          -228 vlineto
          -44 -26 -28 -51 vhcurveto
          -2 -57 2 hlineto
          51 26 -28 -43 hvcurveto
          -229 vlineto
          -78 50 -49 91 vhcurveto
          16 58 -14 hlineto
          -62 -21 27 41 hvcurveto
          208 vlineto
          71 -17 42 -69 9 vhcurveto
          69 8 17 43 72 vvcurveto
          endchar
        </CharString>
        <CharString name="braceright">
          -25 286 353 rmoveto
          -50 -26 28 44 hvcurveto
          228 vlineto
          78 -51 49 -90 vhcurveto
          -17 -58 14 hlineto
          63 21 -27 -41 hvcurveto
          -206 vlineto
          -72 17 -43 68 -8 vhcurveto
          -68 -9 -17 -42 -71 vvcurveto
          -208 vlineto
          -41 -21 -27 -63 vhcurveto
          -14 -58 17 hlineto
          90 51 49 78 hvcurveto
          229 vlineto
          43 26 28 50 vhcurveto
          3 57 hlineto
          endchar
        </CharString>
        <CharString name="bracketleft">
          -80 140 -77 rmoveto
          806 123 54 -182 -914 182 54 vlineto
          endchar
        </CharString>
        <CharString name="bracketright">
          -80 29 783 rmoveto
          -54 123 -806 -123 -54 182 914 vlineto
          endchar
        </CharString>
        <CharString name="breve">
          -23 235 719 0 callsubr
          endchar
        </CharString>
        <CharString name="brokenbar">
          -166 77 801 rmoveto
          -378 53 378 vlineto
          -53 -572 rmoveto
          -378 53 378 vlineto
          endchar
        </CharString>
        <CharString name="bullet">
          -103 64 325 rmoveto
          -41 17 -30 54 52 19 30 41 40 -19 31 -52 -54 -17 -31 -40 vhcurveto
          endchar
        </CharString>
        <CharString name="c">
          -3 60 431 rmoveto
          -295 vlineto
          -90 48 -51 119 46 34 7 7 27 vhcurveto
          28 callsubr
          endchar
        </CharString>
        <CharString name="cacute">
          -3 241 719 -41 callsubr
          -245 -288 rmoveto
          -295 vlineto
          -90 48 -51 119 46 34 7 7 27 vhcurveto
          28 callsubr
          endchar
        </CharString>
        <CharString name="caron">
          -23 211 719 rmoveto
          -36 -64 -36 64 rlineto
          -43 hlineto
          51 -107 rlineto
          56 hlineto
          50 107 rlineto
          endchar
        </CharString>
        <CharString name="ccaron">
          -3 192 612 -55 callsubr
          -13 -290 rmoveto
          52 19 29 84 38 37 -5 -8 26 vhcurveto
          62 vlineto
          8 -25 -34 6 -46 hhcurveto
          -119 -48 -52 -90 hvcurveto
          -295 vlineto
          -90 48 -51 119 46 34 7 7 27 vhcurveto
          63 vlineto
          187 callsubr
          endchar
        </CharString>
        <CharString name="ccedilla">
          -3 227 -5 rmoveto
          46 34 7 7 27 hvcurveto
          28 callsubr
          -295 vlineto
          -80 38 -49 91 -10 vhcurveto
          -14 -66 45 callsubr
          8 35 rlineto
          endchar
        </CharString>
        <CharString name="cedilla">
          -23 149 6 rmoveto
          -16 -75 45 callsubr
          10 46 rlineto
          endchar
        </CharString>
        <CharString name="cent">
          27 343 72 rmoveto
          187 callsubr
          291 vlineto
          52 19 29 84 38 37 -5 -8 26 vhcurveto
          62 vlineto
          -20 6 -25 5 -32 2 rrcurveto
          81 -62 -82 vlineto
          -94 -9 -39 -50 -81 vvcurveto
          -295 vlineto
          -81 39 -49 94 -9 vhcurveto
          -75 61 74 vlineto
          33 2 26 5 21 6 rrcurveto
          endchar
        </CharString>
        <CharString name="circumflex">
          -23 253 612 rmoveto
          -50 107 rlineto
          -56 hlineto
          -51 -107 rlineto
          43 hlineto
          36 64 36 -64 rlineto
          endchar
        </CharString>
        <CharString name="colon">
          -173 31 389 253 callgsubr
          -351 vmoveto
          86 callgsubr
        </CharString>
        <CharString name="comma">
          -230 237 callsubr
          endchar
        </CharString>
        <CharString name="copyright">
          313 47 323 rmoveto
          -187 62 -136 235 231 63 139 184 191 -51 135 -243 -240 -57 -138 -188 vhcurveto
          179 55 rmoveto
          -108 vlineto
          -77 32 -48 99 27 30 4 3 18 vhcurveto
          55 vlineto
          -6 -23 -18 -4 -34 hhcurveto
          -70 -4 32 42 hvcurveto
          107 vlineto
          41 4 33 70 33 19 -4 -6 22 vhcurveto
          54 vlineto
          4 -18 -29 3 -27 hhcurveto
          -99 -32 -47 -78 hvcurveto
          355 -55 rmoveto
          -154 -35 -115 -202 -207 -32 112 157 158 29 113 210 210 27 -111 -160 vhcurveto
          endchar
        </CharString>
        <CharString name="currency">
          87 141 373 rmoveto
          59 17 32 73 72 17 -32 -59 vhcurveto
          -76 vlineto
          -58 -17 -33 -72 -73 -17 33 58 vhcurveto
          245 77 rmoveto
          29 -4 25 -9 22 vhcurveto
          44 43 -44 44 -40 -39 rlineto
          17 -24 -33 9 -45 hhcurveto
          -45 -34 -9 -17 -24 hvcurveto
          -40 39 -44 -44 44 -43 rlineto
          -9 -22 -4 -25 -29 vvcurveto
          -78 vlineto
          -28 4 -26 9 -21 vhcurveto
          -44 -44 44 -44 40 39 rlineto
          -16 24 34 -9 45 hhcurveto
          45 33 9 17 24 hvcurveto
          40 -40 44 44 -45 43 rlineto
          10 22 4 25 29 vvcurveto
          endchar
        </CharString>
        <CharString name="d">
          73 68 callsubr
          endchar
        </CharString>
        <CharString name="dagger">
          209 callsubr
          0 -5 -69 -68 vvcurveto
          -492 60 492 vlineto
          68 -5 69 0 vhcurveto
          0 47 -5 55 vhcurveto
          54 vlineto
          -55 -47 -5 0 hvcurveto
          0 5 70 62 vvcurveto
          endchar
        </CharString>
        <CharString name="daggerdbl">
          209 callsubr
          -2 -135 0 -182 2 -136 rrcurveto
          0 -42 5 -60 vhcurveto
          -54 vlineto
          60 42 5 0 hvcurveto
          0 -5 -52 -80 vvcurveto
          60 hlineto
          80 -5 52 0 vhcurveto
          316 callsubr
          2 136 0 183 -2 134 rrcurveto
          316 callsubr
          0 5 70 62 vvcurveto
          endchar
        </CharString>
        <CharString name="danda">
          -90 148 hmoveto
          62 649 -62 hlineto
          endchar
        </CharString>
        <CharString name="dcaron">
          78 68 callsubr
          135 211 189 callsubr
          33 53 22 vvcurveto
          17 -12 8 -15 vhcurveto
          endchar
        </CharString>
        <CharString name="dcroat">
          74 310 93 rmoveto
          -17 -18 -34 -18 -46 hhcurveto
          -56 -27 28 58 hvcurveto
          274 vlineto
          59 34 29 63 vhcurveto
          84 hlineto
          107 166 rmoveto
          -39 47 -68 -47 -125 -45 125 -59 -96 hlineto
          -91 -62 -52 -97 hvcurveto
          -279 vlineto
          -91 48 -52 93 58 31 19 17 20 vhcurveto
          -33 67 627 39 vlineto
          endchar
        </CharString>
        <CharString name="degree">
          -5 53 -21 callsubr
          -80 33 -62 100 100 34 62 80 81 -34 63 -100 -100 -33 -63 -81 vhcurveto
          213 -1 rmoveto
          -50 -13 -39 -67 -67 -11 39 50 51 11 40 67 67 13 -40 -51 vhcurveto
          endchar
        </CharString>
        <CharString name="dieresis">
          -23 71 664 30 callsubr
        </CharString>
        <CharString name="divide">
          62 40 351 rmoveto
          -56 354 56 vlineto
          -215 -201 rmoveto
          -23 11 -17 30 152 callsubr
          343 vmoveto
          -23 11 -17 30 152 callsubr
          endchar
        </CharString>
        <CharString name="dollar">
          13 156 390 rmoveto
          -42 23 -17 25 46 vvcurveto
          50 vlineto
          52 33 27 71 50 47 -7 -11 30 vhcurveto
          65 vlineto
          -23 7 -38 7 -45 2 rrcurveto
          59 -62 -61 vlineto
          -88 -12 -44 -51 -75 vvcurveto
          -59 vlineto
          -68 31 -41 56 -31 vhcurveto
          115 -63 rlineto
          42 -22 13 -22 -44 vvcurveto
          -43 vlineto
          -50 -32 -36 -87 -50 -51 11 12 -32 vhcurveto
          -65 vlineto
          24 -9 45 -9 49 -2 rrcurveto
          -70 62 73 vlineto
          96 12 45 52 77 vvcurveto
          54 vlineto
          63 -27 40 -55 29 vhcurveto
          endchar
        </CharString>
        <CharString name="dotaccent">
          -23 136 688 43 callsubr
        </CharString>
        <CharString name="dotlessi">
          91 callgsubr
          endchar
        </CharString>
        <CharString name="dottedcircle">
          287 139 517 rmoveto
          -26 18 -19 26 26 18 19 26 25 -18 19 -26 -26 -18 -19 -25 vhcurveto
          -82 -110 rmoveto
          -25 20 -19 26 24 20 19 25 25 -20 19 -24 -26 -20 -19 -25 vhcurveto
          -13 -126 rmoveto
          -25 19 -18 25 26 18 18 350 callsubr
          52 -116 rmoveto
          -26 18 -18 26 25 19 18 26 25 -19 19 -25 -26 -18 -19 -25 vhcurveto
          101 -75 rmoveto
          -26 19 -20 26 25 19 20 26 24 -19 20 -25 -26 -19 -20 -24 vhcurveto
          127 -16 rmoveto
          -26 18 -18 26 26 19 18 26 26 -19 18 -26 -26 -18 -18 -26 vhcurveto
          121 53 rmoveto
          -26 19 -18 25 25 20 18 26 25 -20 19 -25 -25 -19 -19 -25 vhcurveto
          73 98 rmoveto
          -25 19 -19 26 24 19 19 25 26 -19 19 -24 -26 -19 -19 -26 vhcurveto
          10 134 rmoveto
          -26 18 -18 26 25 19 18 26 26 -19 18 -25 -26 -18 -18 -26 vhcurveto
          -50 118 rmoveto
          -25 19 -19 25 26 18 19 350 callsubr
          -95 68 rmoveto
          -24 19 -20 26 25 18 20 24 26 -18 19 -25 -26 -19 -19 -26 vhcurveto
          -126 15 rmoveto
          -26 18 -18 26 26 18 18 26 26 -18 18 -26 -26 -18 -18 -26 vhcurveto
          endchar
        </CharString>
        <CharString name="doubledanda">
          73 114 hmoveto
          62 649 -62 hlineto
          197 -649 rmoveto
          62 649 -62 hlineto
          endchar
        </CharString>
        <CharString name="dvA">
          187 425 -21 callsubr
          -382 -120 vlineto
          -86 callsubr
          97 54 vlineto
          endchar
        </CharString>
        <CharString name="dvAA">
          419 817 -21 callsubr
          -367 -382 -88 callgsubr
          146 -595 132 callsubr
        </CharString>
        <CharString name="dvAI">
          53 362 -21 callsubr
          -158 229 rlineto
          -70 hlineto
          164 -229 rlineto
          -322 -54 93 -470 hlineto
          -84 52 -46 104 53 46 10 10 24 vhcurveto
          57 vlineto
          -8 -26 -46 -12 -50 hhcurveto
          -69 -26 29 45 hvcurveto
          469 163 callsubr
          vlineto
          endchar
        </CharString>
        <CharString name="dvAU">
          420 717 -21 callsubr
          -46 155 rlineto
          -26 callsubr
          -112 -382 -88 callgsubr
          146 -595 -5 callsubr
        </CharString>
        <CharString name="dvAbbreviationsign">
          -5 53 333 rmoveto
          -80 33 -62 100 100 34 62 80 81 -34 62 -100 -100 -33 -62 -81 vhcurveto
          55 -1 rmoveto
          51 11 39 67 67 13 -39 -51 -51 -13 -37 -67 -67 -11 37 51 vhcurveto
          endchar
        </CharString>
        <CharString name="dvAcandra">
          187 425 267 rmoveto
          -88 callgsubr
          97 54 -159 vlineto
          130 185 10 callgsubr
        </CharString>
        <CharString name="dvAnusvara">
          -373 -145 767 6 callsubr
          endchar
        </CharString>
        <CharString name="dvAnusvara.amI">
          -373 19 752 6 callsubr
          endchar
        </CharString>
        <CharString name="dvAvagraha">
          47 383 201 rmoveto
          61 -17 43 -65 35 vhcurveto
          -134 75 rlineto
          -42 23 -9 27 38 vvcurveto
          24 vlineto
          37 8 27 76 vhcurveto
          159 58 -161 hlineto
          -109 -35 -45 -76 hvcurveto
          -27 vlineto
          -59 21 -44 60 -33 vhcurveto
          135 -75 rlineto
          42 -23 9 -28 -38 vvcurveto
          -68 vlineto
          -44 -15 -36 -85 vhcurveto
          -3 hlineto
          -84 -16 36 44 hvcurveto
          69 -61 -68 vlineto
          -86 44 -53 116 vhcurveto
          5 hlineto
          117 44 53 86 hvcurveto
          endchar
        </CharString>
        <CharString name="dvB">
          -153 -24 -21 callsubr
          -54 375 54 vlineto
          -305 -272 rmoveto
          125 callsubr
          103 106 44 45 83 vhcurveto
          179 vlineto
          83 -44 45 -106 -105 -46 -46 -82 vhcurveto
          243 -163 rmoveto
          -170 205 rlineto
          19 12 24 12 43 hhcurveto
          68 23 -32 -43 hvcurveto
          -182 -9 rmoveto
          172 -208 rlineto
          -21 -12 -23 -12 -46 261 callsubr
          endchar
        </CharString>
        <CharString name="dvBA">
          45 107 339 -65 callsubr
          -311 212 rmoveto
          -54 311 165 callgsubr
          54 vlineto
          endchar
        </CharString>
        <CharString name="dvBH">
          30 257 182 46 callgsubr
          231 53 rmoveto
          -169 -4 callsubr
          170 vlineto
          endchar
        </CharString>
        <CharString name="dvBHA">
          212 257 182 15 callgsubr
        </CharString>
        <CharString name="dvBH_LA">
          636 257 182 46 callgsubr
          120 308 rmoveto
          -54 497 -130 vlineto
          9 -22 -21 5 -31 hhcurveto
          -53 -38 349 callsubr
          -75 -43 -31 -54 -15 hvcurveto
          -129 -4 callsubr
          125 -189 282 callgsubr
          -14 -22 -2 -21 hhcurveto
          189 callgsubr
          64 61 16 -31 -39 vhcurveto
          -145 61 172 callsubr
          21 31 61 27 25 112 callsubr
          -5 callsubr
        </CharString>
        <CharString name="dvBH_NA">
          590 640 182 rmoveto
          -41 -16 -23 -55 -55 -15 24 40 vhcurveto
          176 vlineto
          41 15 24 55 vhcurveto
          59 302 callsubr
          -27 -44 vvcurveto
          -383 -168 46 callgsubr
          122 308 rmoveto
          -54 448 -116 -258 vlineto
          -73 -43 -28 -57 -12 hvcurveto
          -122 135 hlineto
          212 callsubr
          -26 4 -27 171 callsubr
          -4 27 25 295 callgsubr
          61 11 -27 -41 vhcurveto
          -134 -75 vlineto
          -95 -40 -39 -78 hvcurveto
          -96 vlineto
          -79 40 -41 95 96 40 41 79 vhcurveto
          160 120 -159 vlineto
          -80 44 -41 87 88 43 41 80 vhcurveto
          169 vlineto
          45 -11 26 -1 1 vhcurveto
          139 62 callgsubr
          54 hlineto
          endchar
        </CharString>
        <CharString name="dvBH_R">
          40 493 423 rmoveto
          -168 106 hlineto
          212 callsubr
          -23 5 -27 171 callsubr
          -5 23 26 295 callgsubr
          61 11 -27 -41 vhcurveto
          -105 -75 vlineto
          -95 -40 -40 -78 hvcurveto
          305 callsubr
          169 vlineto
          -94 vmoveto
          -301 -321 rlineto
          81 hlineto
          102 108 42 45 54 70 22 32 rlinecurve
          -230 42 81 callsubr
          endchar
        </CharString>
        <CharString name="dvBH_RA">
          220 263 251 81 callsubr
          195 -131 rmoveto
          73 callsubr
          -158 36 callgsubr
          -95 -40 -40 -78 hvcurveto
          305 callsubr
          134 vlineto
          endchar
        </CharString>
        <CharString name="dvBH_R_YA">
          517 754 248 rmoveto
          -72 -4 -29 -33 -88 hhcurveto
          -95 -30 37 80 hvcurveto
          78 vlineto
          80 50 35 83 hvcurveto
          69 vlineto
          40 -12 22 -15 8 vhcurveto
          143 hlineto
          -497 -344 rmoveto
          -41 -11 -24 -63 -64 -11 25 40 vhcurveto
          41 160 callgsubr
          120 292 rmoveto
          -54 127 vlineto
          57 16 -27 -43 hvcurveto
          -64 vlineto
          -54 -23 -17 -68 -2 vhcurveto
          15 -13 -24 7 -35 hhcurveto
          -95 119 hlineto
          80 -41 45 -92 -93 -41 -45 -80 vhcurveto
          1 -41 rlineto
          62 hlineto
          -1 40 rlineto
          83 callgsubr
          -118 -74 vlineto
          -96 -39 -39 -78 hvcurveto
          -43 38 callgsubr
          106 89 vlineto
          17 15 -2 -8 8 hvcurveto
          -90 vlineto
          -12 1 -11 1 -11 vhcurveto
          -251 -268 rlineto
          80 hlineto
          102 108 28 29 32 40 25 33 rlinecurve
          -60 29 63 -19 74 hhcurveto
          68 36 16 24 19 hvcurveto
          -125 -5 callsubr
        </CharString>
        <CharString name="dvBH_VA">
          446 685 138 7 callsubr
          -43 hhcurveto
          -68 -25 45 callgsubr
          -428 -255 46 callgsubr
          124 308 226 callsubr
          -91 -49 -43 -68 -8 hvcurveto
          -124 -4 callsubr
          124 -140 vlineto
          -83 49 -48 callsubr
          97 54 vlineto
          endchar
        </CharString>
        <CharString name="dvBH_YA">
          517 754 18 callsubr
          -497 317 callsubr
          107 vlineto
          41 11 23 279 callgsubr
          120 296 56 callgsubr
          -96 -39 -39 -79 hvcurveto
          -108 38 callgsubr
          172 87 vlineto
          19 16 -3 -11 7 hvcurveto
          -83 100 callsubr
          54 vlineto
          endchar
        </CharString>
        <CharString name="dvB_BA">
          289 351 339 rmoveto
          180 -144 rlineto
          -57 vlineto
          -4 -11 -29 -9 -44 hhcurveto
          -72 -24 32 44 hvcurveto
          -244 136 63 callgsubr
          424 51 rmoveto
          -179 141 rlineto
          35 6 26 24 63 hhcurveto
          44 29 -9 -4 11 hvcurveto
          155 212 rmoveto
          -710 -54 555 158 callsubr
          -100 -54 -45 -83 hvcurveto
          -127 vlineto
          -182 140 -68 callsubr
          104 59 40 15 28 23 vhcurveto
          -28 26 42 -15 57 hhcurveto
          45 30 9 4 11 hvcurveto
          -83 58 -71 callgsubr
          vlineto
          endchar
        </CharString>
        <CharString name="dvB_BHA">
          453 237 -21 callsubr
          -261 -54 261 hlineto
          261 -413 22 callsubr
          -391 -4 137 callgsubr
          29 45 hvcurveto
          584 450 rmoveto
          -255 -131 135 vlineto
          80 -41 45 -92 -93 -40 -45 -80 -24 3 137 callsubr
          -4 31 21 103 callgsubr
          -134 -74 vlineto
          -96 -39 -39 -78 hvcurveto
          -26 141 callgsubr
          52 37 12 21 24 vhcurveto
          -28 20 37 -14 57 hhcurveto
          96 39 41 79 hvcurveto
          261 callgsubr
          278 callgsubr
        </CharString>
        <CharString name="dvB_BH_RA">
          455 242 -21 callsubr
          -265 -54 265 hlineto
          256 -344 81 callsubr
          -391 -32 137 callgsubr
          29 45 hvcurveto
          586 450 rmoveto
          36 callgsubr
          -95 -40 -40 -78 hvcurveto
          -53 vlineto
          -180 138 -68 callsubr
          103 81 44 28 51 15 vhcurveto
          -12 21 29 -6 36 231 callgsubr
          119 134 -131 vlineto
          73 callsubr
          vlineto
          endchar
        </CharString>
        <CharString name="dvB_DA">
          274 107 337 rmoveto
          181 -140 rlineto
          -4 1 -4 -5 vvcurveto
          -38 -4 -25 -21 -61 hhcurveto
          -72 272 callsubr
          466 246 171 callgsubr
          -694 -54 535 92 callsubr
          -126 vlineto
          -180 138 -68 callsubr
          104 61 39 16 29 23 vhcurveto
          -27 26 41 -14 54 hhcurveto
          249 callsubr
          hvcurveto
          -59 callsubr
          endchar
        </CharString>
        <CharString name="dvB_DHA">
          344 107 337 137 callgsubr
          29 45 hvcurveto
          475 450 113 callgsubr
          -490 -54 328 hlineto
          0 -9 63 callsubr
          -14 141 callgsubr
          61 40 16 29 22 vhcurveto
          -36 32 52 -16 65 hhcurveto
          49 35 6 8 29 hvcurveto
          -77 278 callgsubr
        </CharString>
        <CharString name="dvB_DH_VA">
          576 816 138 -97 callsubr
          -709 -100 267 callsubr
          450 450 -57 callsubr
          -462 -54 327 132 callgsubr
          -28 -1 -1 140 callgsubr
          69 42 21 37 21 vhcurveto
          -30 32 50 -14 61 hhcurveto
          46 52 10 11 39 hvcurveto
          -23 25 37 -12 50 hhcurveto
          46 38 9 4 10 hvcurveto
          -83 61 callsubr
        </CharString>
        <CharString name="dvB_JA">
          483 107 366 131 callgsubr
          589 274 rmoveto
          -902 20 callgsubr
          95 hlineto
          endchar
        </CharString>
        <CharString name="dvB_JHA">
          562 800 312 rmoveto
          -278 hlineto
          211 callsubr
          148 146 128 hlineto
          -693 -261 137 callgsubr
          28 46 hvcurveto
          851 453 rmoveto
          -982 -54 635 -90 -87 hlineto
          -98 -47 -40 -80 hvcurveto
          -7 vlineto
          -26 5 -22 10 -18 vhcurveto
          -105 -65 hlineto
          -181 140 rlineto
          37 4 23 23 63 hhcurveto
          28 25 -5 0 hvcurveto
          55 vlineto
          0 -27 5 -28 -104 -46 -46 -82 vhcurveto
          -179 330 callgsubr
          65 191 vlineto
          65 18 -27 -41 hvcurveto
          -44 vlineto
          -41 -23 -28 -68 -27 -27 2 7 -27 vhcurveto
          72 -59 -217 59 89 vlineto
          -7 26 25 -2 35 hhcurveto
          104 43 41 82 hvcurveto
          46 vlineto
          33 -10 24 -19 14 vhcurveto
          149 -260 104 callsubr
          hlineto
          endchar
        </CharString>
        <CharString name="dvB_J_YA">
          767 265 -21 callsubr
          -202 -54 202 hlineto
          740 -441 rmoveto
          -5 -25 -39 -6 -46 hhcurveto
          -95 -41 37 80 hvcurveto
          91 vlineto
          232 callsubr
          56 156 callsubr
          181 callgsubr
          -873 -54 529 hlineto
          -56 callsubr
          -51 291 callgsubr
          71 -4 -44 21 -73 hhcurveto
          -217 -55 100 hlineto
          0 9 -26 -45 vvcurveto
          -170 vlineto
          -47 -25 -31 -67 -27 -47 9 8 -34 vhcurveto
          16 12 8 19 30 vvcurveto
          -20 -11 151 -23 vhcurveto
          -7 16 -8 16 -10 14 -6 32 -37 37 -51 3 -10 4 -11 3 -11 3 rrcurveto
          -79 -37 -18 -62 19 9 -149 27 hvcurveto
          7 -17 8 -16 11 -15 6 -34 36 -35 54 -2 9 -3 9 -3 10 -3 rrcurveto
          23 19 1 4 16 hvcurveto
          -7 -36 rlineto
          -8 27 74 -17 48 hhcurveto
          100 53 49 85 hvcurveto
          173 vlineto
          47 -8 23 0 vhcurveto
          38 hlineto
          57 26 -6 -47 hvcurveto
          -131 100 callsubr
          vlineto
          endchar
        </CharString>
        <CharString name="dvB_JxA">
          483 305 12 rmoveto
          -31 169 callsubr
          31 258 callgsubr
          -198 354 131 callgsubr
          591 274 rmoveto
          -904 20 callgsubr
          97 hlineto
          endchar
        </CharString>
        <CharString name="dvB_LA">
          483 107 337 63 callgsubr
          773 450 rmoveto
          -904 -54 746 -130 hlineto
          21 callsubr
          -100 vlineto
          -182 140 -68 callsubr
          104 43 33 8 15 24 vhcurveto
          -59 17 49 -34 90 hhcurveto
          344 callsubr
          hvcurveto
          -92 callgsubr
        </CharString>
        <CharString name="dvB_L_YA">
          775 1013 -102 callgsubr
          -906 -258 267 callsubr
          1065 450 rmoveto
          -1196 -54 852 274 callgsubr
          -41 36 -76 hhcurveto
          -49 -30 -17 -28 -21 hvcurveto
          27 -18 -36 18 -53 hhcurveto
          -95 -42 -49 -80 hvcurveto
          -98 140 callgsubr
          43 32 8 15 24 vhcurveto
          -59 17 48 -34 89 hhcurveto
          5 53 0 1 3 hvcurveto
          55 -59 vlineto
          189 callgsubr
          63 64 13 -32 -41 vhcurveto
          -142 62 273 callgsubr
          12 29 57 64 303 callgsubr
          -93 vlineto
          -134 93 -76 callgsubr
        </CharString>
        <CharString name="dvB_NA">
          437 487 182 -104 callsubr
          -380 -15 rmoveto
          178 -137 rlineto
          -47 -23 -26 -66 -70 -19 29 45 vhcurveto
          178 53 rmoveto
          -177 137 rlineto
          36 4 22 23 62 hhcurveto
          68 21 -26 -48 hvcurveto
          549 275 rmoveto
          -858 -54 699 312 callgsubr
          -41 -32 -9 -17 -22 hvcurveto
          32 -21 -40 18 -65 hhcurveto
          -104 -46 -46 -82 hvcurveto
          -177 vlineto
          -82 46 -46 104 52 36 12 21 23 vhcurveto
          -28 22 36 -14 52 hhcurveto
          87 43 41 80 hvcurveto
          -75 callgsubr
        </CharString>
        <CharString name="dvB_R">
          -149 111 338 rmoveto
          182 -131 rlineto
          -46 -1 -24 -25 -66 261 callsubr
          182 50 rmoveto
          -181 131 rlineto
          37 4 23 22 63 hhcurveto
          68 23 -25 -49 hvcurveto
          -242 -167 rmoveto
          -79 43 -47 107 -1 vhcurveto
          -160 -149 rlineto
          84 hlineto
          152 144 rlineto
          50 47 24 24 61 vvcurveto
          168 vlineto
          83 -44 45 -105 -106 -45 -46 -82 vhcurveto
          -75 272 rmoveto
          -54 396 54 vlineto
          endchar
        </CharString>
        <CharString name="dvB_RA">
          49 111 110 callgsubr
          -315 212 rmoveto
          -54 315 -103 vlineto
          233 callsubr
          -100 -53 -45 -83 hvcurveto
          -155 186 callsubr
          54 vlineto
          endchar
        </CharString>
        <CharString name="dvB_SA">
          455 693 345 rmoveto
          -133 hlineto
          -94 callsubr
          137 hlineto
          -586 -258 rmoveto
          182 -141 rlineto
          -13 vlineto
          -38 -5 -25 -20 -60 hhcurveto
          -72 272 callsubr
          745 450 rmoveto
          -876 -54 518 hlineto
          180 callgsubr
          -142 162 callgsubr
          -24 -23 4 5 -20 vhcurveto
          131 -62 -199 vlineto
          -181 139 rlineto
          37 4 23 23 63 hhcurveto
          16 16 -3 0 hvcurveto
          55 vlineto
          0 -17 3 -17 24 callsubr
          104 42 32 8 14 24 vhcurveto
          -65 19 60 -32 84 hhcurveto
          58 44 10 7 25 hvcurveto
          58 vlineto
          -9 -32 -33 -9 -58 hhcurveto
          -72 -40 34 callgsubr
          51 37 114 callsubr
          161 -291 59 callsubr
        </CharString>
        <CharString name="dvB_SHA">
          449 235 -21 callsubr
          -259 -54 259 hlineto
          -128 -258 63 callgsubr
          249 287 rmoveto
          -1 2 -2 17 18 -18 callgsubr
          -140 162 callgsubr
          -32 -31 7 7 -22 vhcurveto
          79 -62 -151 -1 -3 vlineto
          -182 140 -68 callsubr
          104 44 33 8 16 24 vhcurveto
          -62 20 61 -36 83 hhcurveto
          163 callgsubr
          hvcurveto
          58 vlineto
          -10 -36 -33 -8 -46 hhcurveto
          -72 265 callgsubr
          125 vlineto
          -8 23 30 -6 34 hhcurveto
          99 252 callgsubr
          142 vlineto
          79 -46 50 -100 -100 -47 -50 -79 vhcurveto
          -17 3 -20 -2 vvcurveto
          393 163 rmoveto
          -649 -5 callsubr
        </CharString>
        <CharString name="dvB_TA">
          298 107 337 63 callgsubr
          587 450 rmoveto
          -718 -54 559 310 callsubr
          -100 -50 -51 -80 hvcurveto
          -122 vlineto
          -182 140 -68 callsubr
          104 41 31 7 13 23 vhcurveto
          -57 10 39 -34 77 hhcurveto
          -67 callsubr
          vlineto
          endchar
        </CharString>
        <CharString name="dvB_VA">
          293 532 138 -97 callsubr
          -425 -100 rmoveto
          181 -140 rlineto
          -10 vlineto
          -40 -3 -25 -22 -61 hhcurveto
          -72 272 callsubr
          582 450 rmoveto
          -713 -54 555 -103 hlineto
          107 callsubr
          -123 vlineto
          -180 138 -68 callsubr
          104 58 39 15 27 23 vhcurveto
          -27 24 40 -15 56 65 callgsubr
        </CharString>
        <CharString name="dvB_YA">
          358 596 -102 callgsubr
          -489 -258 63 callgsubr
          648 450 rmoveto
          -779 -54 435 64 callsubr
          -5 147 callgsubr
          104 72 43 22 41 20 vhcurveto
          -36 37 55 -12 59 -30 callsubr
        </CharString>
        <CharString name="dvC">
          303 callsubr
          11 -461 rmoveto
          -9 -30 -41 -7 -32 hhcurveto
          -66 -24 27 49 hvcurveto
          145 vlineto
          -10 callgsubr
          -146 vlineto
          -83 45 -48 102 36 48 8 8 24 vhcurveto
          endchar
        </CharString>
        <CharString name="dvCA">
          88 152 339 rmoveto
          -10 callgsubr
          -146 vlineto
          -83 45 -48 101 36 30 6 8 24 vhcurveto
          -76 104 callsubr
          54 -508 -54 350 -463 vlineto
          333 callsubr
          endchar
        </CharString>
        <CharString name="dvCH">
          131 320 494 rmoveto
          268 callgsubr
          -196 vlineto
          -35 callsubr
          -68 1 -14 27 41 vvcurveto
          130 vlineto
          53 24 19 49 vhcurveto
          327 54 -552 126 callsubr
          203 vlineto
          69 -32 54 -97 vhcurveto
          endchar
        </CharString>
        <CharString name="dvCHA">
          132 66 392 rmoveto
          133 callsubr
          153 54 -552 -54 100 vlineto
          0 -10 -23 -47 vvcurveto
          61 hmoveto
          45 11 25 0 vhcurveto
          180 -101 hlineto
          -36 -27 -8 0 hvcurveto
          -55 vlineto
          0 25 8 31 64 12 -27 -46 vhcurveto
          -196 vlineto
          -35 callsubr
          -67 1 -15 27 41 vvcurveto
          endchar
        </CharString>
        <CharString name="dvCH_R">
          132 229 -153 65 callsubr
          101 323 -32 callgsubr
        </CharString>
        <CharString name="dvCH_RA">
          132 387 170 -32 callgsubr
        </CharString>
        <CharString name="dvCH_R_YA">
          626 865 357 callgsubr
          -32 -41 -6 -44 hhcurveto
          -96 -33 204 callsubr
          12 vlineto
          80 -41 41 -92 vhcurveto
          -241 100 490 hlineto
          -478 -425 -77 callsubr
          637 283 rmoveto
          -1048 -54 100 hlineto
          114 callgsubr
          -88 39 -42 97 -11 vhcurveto
          -83 -151 rlineto
          66 hlineto
          76 148 rlineto
          4 hlineto
          77 -148 rlineto
          65 hlineto
          -82 152 rlineto
          92 11 37 43 88 vvcurveto
          203 vlineto
          26 -4 23 -8 18 vhcurveto
          181 hlineto
          345 callgsubr
          -8 292 callgsubr
          -30 -52 hlineto
          -133 84 -37 104 44 44 321 callgsubr
        </CharString>
        <CharString name="dvCH_YA">
          609 847 144 rmoveto
          -6 -33 178 callsubr
          10 vlineto
          80 -41 42 -92 vhcurveto
          -188 hlineto
          16 -20 -29 9 -40 hhcurveto
          268 callgsubr
          -221 vlineto
          -35 callsubr
          -68 1 -14 27 41 vvcurveto
          130 vlineto
          53 24 19 49 vhcurveto
          646 249 callgsubr
          -1029 126 callsubr
          228 vlineto
          14 -1 14 -4 13 vhcurveto
          154 hlineto
          345 callgsubr
          -7 90 callsubr
          32 vhcurveto
          -86 46 callsubr
        </CharString>
        <CharString name="dvC_CA">
          334 730 -21 callsubr
          -754 -54 596 -463 hlineto
          333 callsubr
          145 vlineto
          256 callsubr
          -221 -54 49 hlineto
          0 -9 -31 -57 vvcurveto
          -146 vlineto
          -23 4 -21 7 -18 vhcurveto
          -7 -28 -33 -6 -39 hhcurveto
          -67 -28 22 54 hvcurveto
          145 vlineto
          58 10 30 0 vhcurveto
          76 54 -226 -55 87 161 callgsubr
          -146 vlineto
          -83 53 -48 101 53 57 13 12 29 vhcurveto
          -16 23 33 -9 43 hhcurveto
          36 30 6 8 24 hvcurveto
          -76 59 callgsubr
        </CharString>
        <CharString name="dvC_CHA">
          411 666 50 callsubr
          -831 -54 379 vlineto
          0 -10 -23 -47 vvcurveto
          -133 vlineto
          -45 10 -35 44 -17 vhcurveto
          -44 -13 -16 69 callsubr
          -42 27 56 -17 92 hhcurveto
          140 53 40 106 hvcurveto
          203 vlineto
          61 -20 41 -53 356 callsubr
        </CharString>
        <CharString name="dvC_CH_VA">
          411 666 170 rmoveto
          -35 callsubr
          -68 1 -14 27 41 vvcurveto
          132 vlineto
          45 10 25 0 vhcurveto
          181 -101 hlineto
          -36 -27 -8 0 hvcurveto
          -55 vlineto
          0 25 8 31 64 12 -27 -46 vhcurveto
          -52 -510 rmoveto
          -8 -29 -27 -3 -37 hhcurveto
          -70 -23 27 44 hvcurveto
          35 vlineto
          43 21 28 70 vhcurveto
          0 15 vlineto
          31 26 2 4 23 hvcurveto
          193 567 rmoveto
          54 -831 -54 379 vlineto
          0 -11 -23 -47 vvcurveto
          -133 vlineto
          257 callgsubr
          -15 69 callsubr
          12 -18 17 -13 22 -10 rrcurveto
          -26 -18 -16 -30 -41 vvcurveto
          -37 vlineto
          -81 53 -42 98 37 32 4 7 26 vhcurveto
          -61 61 309 vlineto
          36 23 16 38 57 vvcurveto
          203 vlineto
          61 -20 41 -54 356 callsubr
        </CharString>
        <CharString name="dvC_MA">
          490 727 430 -39 callsubr
          349 273 rmoveto
          -910 -54 561 196 callgsubr
          -95 -40 -40 -78 hvcurveto
          -131 vlineto
          -19 2 -17 5 -14 vhcurveto
          -7 -26 -33 -6 -31 hhcurveto
          -67 -25 27 49 hvcurveto
          145 vlineto
          -10 callgsubr
          -146 vlineto
          -83 49 -48 102 47 55 13 9 26 vhcurveto
          -14 21 31 -8 41 85 callsubr
        </CharString>
        <CharString name="dvC_NA">
          480 530 182 -104 callsubr
          347 299 rmoveto
          -909 -54 750 -116 157 callsubr
          -177 vlineto
          -19 2 -16 5 -14 vhcurveto
          -8 -29 -36 -7 -35 hhcurveto
          -66 -25 27 49 hvcurveto
          145 vlineto
          -10 callgsubr
          -146 vlineto
          -83 49 -48 102 51 51 13 11 32 vhcurveto
          -16 22 31 -9 40 hhcurveto
          87 43 41 80 hvcurveto
          -75 callgsubr
        </CharString>
        <CharString name="dvC_R">
          303 callsubr
          -182 -256 rmoveto
          -10 callgsubr
          -141 vlineto
          -83 45 -48 111 10 8 0 1 9 vhcurveto
          -146 -128 rlineto
          79 hlineto
          153 139 rlineto
          58 vlineto
          -8 -29 -33 -5 -45 hhcurveto
          -76 -24 26 49 hvcurveto
          endchar
        </CharString>
        <CharString name="dvC_RA">
          89 -24 -21 callsubr
          -54 350 -426 vlineto
          333 callgsubr
          108 vlineto
          58 11 263 callsubr
          -258 -55 86 161 callgsubr
          -107 vlineto
          -81 42 -48 98 -2 vhcurveto
          -151 -151 rlineto
          79 hlineto
          164 164 3 1 rlineto
          -115 -5 callsubr
        </CharString>
        <CharString name="dvC_YA">
          401 639 -102 callgsubr
          181 callgsubr
          -822 -54 478 64 callsubr
          -43 10 -33 16 -26 vhcurveto
          -10 -32 -40 -9 -42 hhcurveto
          -66 -26 26 49 hvcurveto
          129 vlineto
          -10 callgsubr
          -130 vlineto
          -82 50 -48 104 72 58 21 14 27 vhcurveto
          -21 35 44 -8 47 -30 callsubr
        </CharString>
        <CharString name="dvCandrabindu">
          -373 -144 870 rmoveto
          -23 10 -17 30 29 10 17 23 22 -10 17 -29 -30 -10 -17 -22 vhcurveto
          138 -36 10 callgsubr
        </CharString>
        <CharString name="dvD">
          30 452 24 callgsubr
          -340 412 rmoveto
          -74 callsubr
          138 327 callgsubr
          hlineto
          -100 -47 -41 -83 hvcurveto
          endchar
        </CharString>
        <CharString name="dvDA">
          30 44 205 rmoveto
          -74 callsubr
          138 327 callgsubr
          hlineto
          -100 -47 -41 -83 hvcurveto
          endchar
        </CharString>
        <CharString name="dvDA_mvR">
          30 329 445 rmoveto
          327 callgsubr
          vlineto
          -100 -47 -41 -83 hvcurveto
          -110 vlineto
          -83 55 -48 99 36 24 3 7 27 vhcurveto
          -55 -16 vlineto
          -84 -52 -35 -98 -97 59 -35 84 27 17 1 4 29 hvcurveto
          60 vlineto
          -3 -25 -23 -3 -24 hhcurveto
          -44 -41 6 67 68 37 5 44 17 30 -2 -3 24 hvcurveto
          267 -59 -91 vlineto
          -6 -26 -21 -4 -37 hhcurveto
          -68 -27 30 46 hvcurveto
          108 -14 callgsubr
          endchar
        </CharString>
        <CharString name="dvDD">
          38 339 24 callgsubr
          91 367 -46 callsubr
        </CharString>
        <CharString name="dvDDA">
          38 362 160 -46 callsubr
        </CharString>
        <CharString name="dvDDH">
          33 344 24 callgsubr
          -74 710 rmoveto
          310 callgsubr
          -84 48 -51 105 105 47 50 84 vhcurveto
          -60 callgsubr
          125 168 callgsubr
          hlineto
          endchar
        </CharString>
        <CharString name="dvDDHA">
          33 202 503 rmoveto
          310 callgsubr
          -84 48 -51 105 105 47 50 84 vhcurveto
          -60 callgsubr
          125 168 callgsubr
          hlineto
          endchar
        </CharString>
        <CharString name="dvDDH_DDHA">
          40 328 448 rmoveto
          147 108 54 -460 300 callsubr
          -46 15 -36 31 -23 vhcurveto
          -32 -20 -15 -34 -45 vvcurveto
          -152 vlineto
          -83 49 -50 106 105 48 49 83 vhcurveto
          14 vlineto
          81 -49 38 -67 -30 -20 -8 0 vhcurveto
          -53 vlineto
          0 14 8 28 38 26 -18 -49 vhcurveto
          -12 340 callgsubr
          34 45 vhcurveto
          150 vlineto
          45 18 27 69 vhcurveto
          6 hlineto
          106 48 49 83 hvcurveto
          105 callsubr
        </CharString>
        <CharString name="dvDDH_R">
          33 186 -159 65 callsubr
          84 605 rmoveto
          168 callgsubr
          -64 vlineto
          310 callgsubr
          -65 29 -46 62 -17 vhcurveto
          -81 -148 rlineto
          66 hlineto
          73 141 rlineto
          4 hlineto
          6 256 callgsubr
          149 rlineto
          60 17 28 96 callsubr
        </CharString>
        <CharString name="dvDDH_RA">
          33 327 446 rmoveto
          168 callgsubr
          -64 vlineto
          310 callgsubr
          -65 29 -45 62 -18 vhcurveto
          -81 -147 rlineto
          66 hlineto
          72 140 rlineto
          5 hlineto
          7 hlineto
          73 -140 rlineto
          65 hlineto
          -80 148 rlineto
          60 17 27 96 callsubr
        </CharString>
        <CharString name="dvDDH_VA">
          48 282 -81 rmoveto
          -5 -21 -25 -4 -36 hhcurveto
          -60 -21 23 41 hvcurveto
          40 vlineto
          45 19 26 70 vhcurveto
          0 3 vlineto
          28 23 3 6 20 hvcurveto
          46 354 rmoveto
          147 117 54 -469 300 callsubr
          -47 16 -36 33 -22 vhcurveto
          -30 -19 -18 -32 -44 vvcurveto
          -45 vlineto
          -77 50 -37 89 36 32 6 5 16 vhcurveto
          -62 59 326 vlineto
          17 21 8 28 34 vvcurveto
          105 callsubr
        </CharString>
        <CharString name="dvDDH_YA">
          511 749 222 callgsubr
          20 vlineto
          79 -41 42 -92 vhcurveto
          -173 92 422 249 callgsubr
          -931 -54 290 -92 -64 hlineto
          310 callgsubr
          -84 48 -51 105 105 47 50 84 vhcurveto
          -60 callgsubr
          298 hlineto
          60 11 -26 -41 hvcurveto
          -16 183 callsubr
        </CharString>
        <CharString name="dvDDHxA">
          33 202 503 rmoveto
          310 callgsubr
          -84 48 -51 105 105 47 50 84 vhcurveto
          48 vlineto
          84 -48 38 -69 -29 -20 -8 0 vhcurveto
          -56 vlineto
          0 15 8 28 37 25 -18 -49 vhcurveto
          -46 vlineto
          -44 -18 -34 -73 -73 -18 34 45 vhcurveto
          247 -14 callgsubr
          125 168 callgsubr
          hlineto
          -99 -633 rmoveto
          -28 callgsubr
          -30 -10 -17 -23 vhcurveto
          endchar
        </CharString>
        <CharString name="dvDD_DDA">
          47 240 callsubr
          -33 -76 hvcurveto
          -5 vlineto
          -81 49 -29 90 vhcurveto
          38 hlineto
          59 18 -17 -41 284 callgsubr
          13 -3 14 -2 15 -2 rrcurveto
          -16 -19 -8 -23 -30 vvcurveto
          -81 53 -28 84 vhcurveto
          37 hlineto
          59 18 -18 -40 hvcurveto
          -16 vlineto
          -50 -22 -17 -79 -43 -62 8 10 -49 vhcurveto
          -54 vlineto
          -11 45 55 -8 54 hhcurveto
          113 51 33 88 hvcurveto
          16 vlineto
          80 -47 32 -93 vhcurveto
          -39 hlineto
          -57 -18 17 41 43 18 17 57 hvcurveto
          0 13 267 callgsubr
          -17 16 41 -1 hvcurveto
          4 vlineto
          40 18 16 58 vhcurveto
          endchar
        </CharString>
        <CharString name="dvDD_DDHA">
          46 240 callsubr
          -32 -79 hvcurveto
          -4 vlineto
          -80 49 -29 90 vhcurveto
          38 hlineto
          59 18 -18 -40 284 callgsubr
          15 -3 16 -3 17 -2 rrcurveto
          -21 -21 -12 -29 -36 vvcurveto
          -146 vlineto
          -84 49 -49 106 105 48 49 83 vhcurveto
          14 vlineto
          80 -49 38 -67 -30 -20 -8 0 vhcurveto
          -52 vlineto
          0 14 8 28 38 26 -19 -48 vhcurveto
          -12 340 callgsubr
          34 44 vhcurveto
          151 vlineto
          44 17 27 67 1 vhcurveto
          0 5 267 callgsubr
          -18 16 41 44 18 16 58 hvcurveto
          endchar
        </CharString>
        <CharString name="dvDD_R">
          37 177 -159 65 callsubr
          98 608 77 callgsubr
          -78 -143 rcurveline
          66 hlineto
          73 141 rlineto
          10 256 callgsubr
          150 rlineto
          62 17 31 41 62 vvcurveto
          110 callsubr
        </CharString>
        <CharString name="dvDD_RA">
          38 333 449 77 callgsubr
          -77 -141 rcurveline
          66 hlineto
          72 139 12 1 73 -140 rlineto
          65 hlineto
          -80 148 rlineto
          61 17 30 41 62 vvcurveto
          110 callsubr
        </CharString>
        <CharString name="dvDD_VA">
          48 122 14 rmoveto
          45 19 26 70 vhcurveto
          0 vlineto
          29 24 3 5 21 hvcurveto
          -174 vlineto
          -5 -21 -25 -4 -36 hhcurveto
          -59 -22 23 41 hvcurveto
          220 477 rmoveto
          144 102 54 -468 -54 303 -91 -85 vlineto
          -93 -47 -33 -76 hvcurveto
          -5 vlineto
          -81 50 -29 89 vhcurveto
          38 hlineto
          60 17 -18 -40 1 hvcurveto
          -16 vlineto
          -51 -24 -16 -78 -43 -72 7 11 -53 vhcurveto
          -55 vlineto
          15 -3 17 -3 18 -2 rrcurveto
          -18 -20 -10 -26 -33 vvcurveto
          -45 vlineto
          -77 51 -37 88 36 32 6 5 17 vhcurveto
          -62 58 317 vlineto
          19 19 9 27 37 vvcurveto
          16 vlineto
          81 -47 32 -93 vhcurveto
          -38 hlineto
          -58 -18 16 41 hvcurveto
          3 vlineto
          41 18 16 58 vhcurveto
          endchar
        </CharString>
        <CharString name="dvDD_YA">
          514 751 357 callgsubr
          -32 178 callsubr
          22 vlineto
          80 -41 41 -92 vhcurveto
          -169 90 418 hlineto
          181 callgsubr
          -934 2 callsubr
          37 vlineto
          -44 callsubr
          306 hlineto
          345 callgsubr
          -19 90 callsubr
          31 vhcurveto
          -86 -91 callsubr
          vlineto
          endchar
        </CharString>
        <CharString name="dvDDxA">
          38 166 -131 rmoveto
          -23 11 -17 30 152 callsubr
          196 291 -46 callsubr
        </CharString>
        <CharString name="dvDH">
          -78 376 139 rmoveto
          -8 -28 -54 -12 -46 hhcurveto
          -76 -46 23 69 hvcurveto
          53 -36 callsubr
          -57 vlineto
          -100 75 -45 105 49 52 10 9 31 vhcurveto
          endchar
        </CharString>
        <CharString name="dvDHA">
          119 79 595 rmoveto
          0 -9 -23 -47 vvcurveto
          -67 vlineto
          -46 10 -35 44 -16 vhcurveto
          97 callsubr
          -158 -13 callsubr
          -265 -54 hlineto
          endchar
        </CharString>
        <CharString name="dvDH_MA">
          509 748 205 callsubr
          -191 -35 callgsubr
          -224 273 rmoveto
          -54 224 -165 -75 vlineto
          -95 -40 -40 -78 hvcurveto
          -131 vlineto
          -17 2 -15 4 -14 vhcurveto
          -7 -30 -38 -6 -37 207 callsubr
          50 -36 callsubr
          -55 323 callgsubr
          53 51 13 9 34 vhcurveto
          -16 22 32 -9 43 231 callgsubr
          195 130 -376 61 callsubr
        </CharString>
        <CharString name="dvDH_NA">
          498 548 182 rmoveto
          -41 -16 -23 -55 -54 -28 callsubr
          176 -9 callgsubr
          54 vhcurveto
          59 302 callsubr
          -27 -44 vvcurveto
          -232 299 rmoveto
          -54 420 -116 -259 vlineto
          -87 340 callsubr
          -18 2 -16 5 -14 vhcurveto
          -8 -31 -38 -7 -36 hhcurveto
          -76 -46 23 69 hvcurveto
          53 -36 callsubr
          -57 323 callgsubr
          52 53 13 10 34 vhcurveto
          -17 21 31 -8 39 hhcurveto
          88 43 41 80 hvcurveto
          169 vlineto
          45 -11 26 -1 1 vhcurveto
          140 -423 215 callgsubr
          hlineto
          endchar
        </CharString>
        <CharString name="dvDH_N_YA">
          802 1040 -102 callgsubr
          -491 -413 rmoveto
          -41 -16 -23 -55 -54 -28 callsubr
          168 -9 callgsubr
          54 vhcurveto
          59 302 callsubr
          -28 -43 vvcurveto
          650 307 rmoveto
          -855 -54 511 101 callsubr
          -18 -55 -4 vhcurveto
          61 -10 -52 24 -79 hhcurveto
          -170 hlineto
          -87 -44 -39 -80 hvcurveto
          -169 vlineto
          -19 2 -16 5 -15 vhcurveto
          -7 -32 -38 -6 -36 hhcurveto
          -76 -46 23 69 hvcurveto
          53 -36 callsubr
          -57 323 callgsubr
          53 55 12 9 34 vhcurveto
          -15 21 30 -8 38 hhcurveto
          88 43 41 80 hvcurveto
          161 vlineto
          45 -11 25 -1 2 vhcurveto
          46 hlineto
          52 38 -11 -39 hvcurveto
          -109 vlineto
          -134 92 -76 callgsubr
        </CharString>
        <CharString name="dvDH_R">
          -78 126 267 rmoveto
          -54 callgsubr
          64 161 callsubr
          75 54 -240 160 callsubr
          -64 74 callsubr
          -38 vlineto
          -103 72 -44 112 13 12 1 1 13 vhcurveto
          -149 -130 224 callgsubr
          endchar
        </CharString>
        <CharString name="dvDH_RA">
          120 357 -21 callsubr
          -495 vlineto
          245 callsubr
          28 vlineto
          120 callgsubr
          101 54 -266 -54 102 hlineto
          248 callsubr
          -70 vlineto
          -45 10 -35 44 -16 vhcurveto
          39 callgsubr
        </CharString>
        <CharString name="dvDH_VA">
          352 591 138 -97 callsubr
          -259 212 -57 callsubr
          -237 -54 102 hlineto
          0 -8 -23 -47 vvcurveto
          -51 vlineto
          -45 10 -35 44 -17 vhcurveto
          29 callsubr
        </CharString>
        <CharString name="dvDH_YA">
          417 655 154 -6 callgsubr
          -323 54 -22 callgsubr
          -237 -54 102 hlineto
          0 -8 -23 -47 vvcurveto
          -51 vlineto
          -45 10 -35 44 -17 vhcurveto
          30 callgsubr
        </CharString>
        <CharString name="dvD_BA">
          46 298 24 rmoveto
          -6 0 -6 -1 -5 vhcurveto
          -156 120 rlineto
          9 14 20 5 27 hhcurveto
          29 50 5 5 17 hvcurveto
          -184 -85 rmoveto
          9 1 9 2 7 vhcurveto
          162 -125 rlineto
          -13 -13 -23 -8 -36 hhcurveto
          -75 -18 33 46 hvcurveto
          228 421 rmoveto
          150 100 54 -466 326 callsubr
          -117 vlineto
          -45 17 -33 32 -20 vhcurveto
          -30 -20 -17 -32 -46 vvcurveto
          -43 vlineto
          -83 47 -49 106 106 44 50 83 vhcurveto
          307 -59 -127 vlineto
          -4 -22 -41 -6 -29 hhcurveto
          -70 -22 28 43 hvcurveto
          111 vlineto
          42 18 28 70 vhcurveto
          endchar
        </CharString>
        <CharString name="dvD_BHA">
          125 121 -78 rmoveto
          -12 18 -4 21 32 24 42 30 rcurveline
          38 -53 13 -17 3 -22 -32 -24 rlinecurve
          -34 -25 -20 12 -12 17 rrcurveto
          287 542 rmoveto
          150 100 54 -546 -54 385 92 callsubr
          -98 vlineto
          -83 54 -48 95 -1 vhcurveto
          -93 -68 -49 68 -31 44 -47 5 -51 -38 rlinecurve
          -52 -37 -10 -46 31 -44 17 -21 rcurveline
          40 29 -16 22 -11 17 -2 20 31 23 rlinecurve
          30 22 17 -8 14 -17 48 -67 rcurveline
          -42 -31 -53 -39 -9 -47 31 -41 rlinecurve
          15 -21 31 -43 47 -8 55 38 rlinecurve
          54 40 6 48 -30 43 -39 54 rcurveline
          157 112 3 1 rlineto
          -109 59 262 -59 -97 vlineto
          -6 -28 -20 -3 -36 hhcurveto
          -68 -27 29 335 callsubr
        </CharString>
        <CharString name="dvD_B_RA">
          44 299 102 rmoveto
          -7 0 -7 -2 -6 vhcurveto
          -154 101 rlineto
          8 14 19 5 26 hhcurveto
          34 45 7 7 18 hvcurveto
          -185 -90 rmoveto
          10 1 10 2 8 vhcurveto
          161 -105 -3 -2 -4 -3 -4 -2 rlinecurve
          -5 hlineto
          -5 -5 rlineto
          -4 -13 -16 -3 -21 hhcurveto
          -75 -18 33 45 hvcurveto
          228 343 rmoveto
          150 99 54 -465 326 callsubr
          -62 vlineto
          -46 17 -32 33 -20 vhcurveto
          -30 -20 -17 -33 -46 vvcurveto
          -18 vlineto
          -82 44 -45 96 -2 vhcurveto
          -109 -105 rlineto
          81 hlineto
          126 124 6 3 rlineto
          -75 58 419 -58 -76 vlineto
          -6 -19 -33 -8 -41 hhcurveto
          -70 -22 28 42 hvcurveto
          57 vlineto
          42 18 28 70 vhcurveto
          endchar
        </CharString>
        <CharString name="dvD_DA">
          37 336 451 rmoveto
          144 97 54 -457 -54 298 -90 -79 vlineto
          -98 -46 -42 -79 hvcurveto
          -12 vlineto
          -45 16 -31 31 -19 vhcurveto
          -31 -20 -16 -31 -45 vvcurveto
          -53 vlineto
          -79 55 -44 98 38 26 6 7 24 vhcurveto
          -85 60 228 -60 -89 vlineto
          -5 -20 -28 -7 -36 hhcurveto
          -68 -27 27 41 hvcurveto
          53 230 callsubr
          90 55 -90 hlineto
          -68 -18 27 41 hvcurveto
          11 230 callsubr
          endchar
        </CharString>
        <CharString name="dvD_DHA">
          178 478 445 171 callgsubr
          -599 -54 441 92 callsubr
          -173 vlineto
          268 callsubr
          10 vlineto
          216 callsubr
          15 50 -15 hlineto
          42 callgsubr
        </CharString>
        <CharString name="dvD_GA">
          40 337 343 callgsubr
          99 54 -460 -54 300 92 callsubr
          -140 vlineto
          -62 31 -43 57 -17 vhcurveto
          -73 vlineto
          -41 320 callsubr
          -4 22 91 27 43 78 vhcurveto
          67 6 vlineto
          36 25 3 7 27 hvcurveto
          -277 59 446 -59 -113 vlineto
          -6 -27 -20 -4 -37 hhcurveto
          -68 -27 30 46 hvcurveto
          138 -14 callgsubr
          endchar
        </CharString>
        <CharString name="dvD_GHA">
          179 64 63 rmoveto
          216 callsubr
          65 -91 hlineto
          268 callsubr
          414 392 171 callgsubr
          -599 -54 441 92 callsubr
          -32 -65 vlineto
          42 callgsubr
        </CharString>
        <CharString name="dvD_G_RA">
          39 337 445 171 callgsubr
          -458 -54 299 92 callsubr
          -99 vlineto
          -62 30 -42 56 -18 vhcurveto
          -54 vlineto
          -40 320 callsubr
          -5 22 91 27 44 78 vhcurveto
          47 8 vlineto
          36 25 3 7 27 hvcurveto
          -117 vlineto
          -205 -215 rlineto
          74 hlineto
          34 35 68 70 29 36 3 7 rlinecurve
          -1 vlineto
          -3 -1 -31 -27 vvcurveto
          -46 57 465 -59 -118 vlineto
          -5 -27 -20 -4 -37 hhcurveto
          -68 -27 30 335 callsubr
        </CharString>
        <CharString name="dvD_MA">
          254 492 127 rmoveto
          -145 199 -59 -91 hlineto
          -4 -13 -34 -8 -41 hhcurveto
          -70 -24 28 41 hvcurveto
          84 vlineto
          41 17 28 70 vhcurveto
          139 150 160 249 callgsubr
          -674 -54 294 -93 -77 hlineto
          -102 -47 -42 -83 hvcurveto
          -85 vlineto
          -80 53 -45 99 40 34 7 7 18 vhcurveto
          -156 59 48 145 -104 62 626 96 vlineto
          endchar
        </CharString>
        <CharString name="dvD_NA">
          30 329 445 rmoveto
          327 callgsubr
          vlineto
          -100 -47 -41 -83 hvcurveto
          -154 vlineto
          -80 50 -44 92 -4 vhcurveto
          -85 -59 -65 -47 -3 -50 31 -37 rlinecurve
          22 -26 40 -4 0 vvcurveto
          43 35 rlineto
          0 -35 6 -15 18 vhcurveto
          -19 24 6 21 35 25 144 103 rcurveline
          -113 59 270 -59 -104 vlineto
          -6 -28 -20 -3 -36 hhcurveto
          -67 -28 29 47 hvcurveto
          152 -14 callgsubr
          endchar
        </CharString>
        <CharString name="dvD_R">
          30 344 -8 rmoveto
          245 -59 -66 vlineto
          -11 -27 -18 -4 -39 hhcurveto
          -68 -27 29 46 hvcurveto
          146 -14 callgsubr
          137 150 98 54 -451 -54 292 -93 -76 hlineto
          -100 -47 -41 -83 hvcurveto
          -147 vlineto
          -84 55 -44 98 vhcurveto
          1 hlineto
          -152 -172 rlineto
          75 hlineto
          160 181 4 1 rlineto
          -121 vlineto
          63 -55 rmoveto
          -57 hlineto
          208 callsubr
          endchar
        </CharString>
        <CharString name="dvD_RA">
          30 330 343 callgsubr
          98 54 -452 -54 292 -93 -75 vlineto
          -100 -48 -41 -83 hvcurveto
          -146 3 callsubr
        </CharString>
        <CharString name="dvD_VA">
          39 293 181 callsubr
          43 292 rmoveto
          150 100 54 -460 -54 299 92 callsubr
          78 callsubr
        </CharString>
        <CharString name="dvD_YA">
          106 503 -21 callsubr
          -527 -54 186 -75 hlineto
          -58 -2 -48 -25 -74 vvcurveto
          -29 vlineto
          -44 10 -35 45 -17 vhcurveto
          -44 -14 -16 -38 -43 vvcurveto
          -16 vlineto
          -100 66 -35 107 48 42 7 7 32 vhcurveto
          -62 60 -71 callgsubr
          vlineto
          -159 hmoveto
          -477 vlineto
          -7 -26 -45 -7 -44 hhcurveto
          -76 -40 13 69 hvcurveto
          13 vlineto
          42 20 28 68 vhcurveto
          31 54 -33 hlineto
          -67 -15 27 41 hvcurveto
          23 vlineto
          50 29 11 50 vhcurveto
          28 120 hlineto
          endchar
        </CharString>
        <CharString name="dvE">
          53 352 72 rmoveto
          -8 -26 -45 -12 -50 hhcurveto
          -76 -24 30 49 hvcurveto
          464 134 callsubr
          -464 vlineto
          -93 54 -43 107 52 47 10 10 23 vhcurveto
          endchar
        </CharString>
        <CharString name="dvEcandra">
          53 319 844 rmoveto
          -51 -29 -15 -70 -71 -28 15 51 vhcurveto
          -59 -1 hlineto
          -90 55 -30 103 102 56 30 90 vhcurveto
          1 vlineto
          -30 -772 rmoveto
          -8 -26 -46 -12 -50 hhcurveto
          -69 -26 29 45 hvcurveto
          469 134 callsubr
          -470 vlineto
          -84 52 -46 104 53 46 10 10 24 vhcurveto
          endchar
        </CharString>
        <CharString name="dvEight">
          -5 callgsubr
        </CharString>
        <CharString name="dvEyelash">
          -128 -24 595 rmoveto
          380 54 -380 hlineto
          380 -321 rmoveto
          -168 hlineto
          -71 -38 -3 53 hvcurveto
          -59 -3 hlineto
          -89 66 -12 102 vhcurveto
          168 hlineto
          endchar
        </CharString>
        <CharString name="dvEyelash_HA">
          249 548 313 callgsubr
          97 54 -669 -54 510 -90 -89 vlineto
          -98 -45 -39 -79 hvcurveto
          -10 -69 vlineto
          -71 -38 5 53 hvcurveto
          -60 -4 hlineto
          -89 66 -20 103 vhcurveto
          79 hlineto
          8 -18 14 -14 20 -9 rrcurveto
          -36 -16 -18 -31 -47 vvcurveto
          -57 vlineto
          -83 51 -52 118 46 49 4 8 42 vhcurveto
          54 vlineto
          -8 -48 -40 -2 -48 hhcurveto
          -85 -23 34 46 hvcurveto
          57 6 callgsubr
          -36 40 -90 82 callgsubr
          16 24 65 vhcurveto
          endchar
        </CharString>
        <CharString name="dvEyelash_YA">
          310 548 50 callgsubr
          79 hvcurveto
          55 vlineto
          232 callsubr
          93 156 callsubr
          -572 54 rmoveto
          -54 387 vlineto
          -56 callsubr
          -88 vlineto
          -59 -27 -14 -83 vhcurveto
          -68 hlineto
          -71 -38 5 54 hvcurveto
          -59 -4 hlineto
          -89 65 -20 103 vhcurveto
          48 -57 hlineto
          -134 92 -34 173 callsubr
          54 vlineto
          endchar
        </CharString>
        <CharString name="dvFive">
          47 callsubr
        </CharString>
        <CharString name="dvFour">
          135 callsubr
        </CharString>
        <CharString name="dvG">
          -120 190 595 rmoveto
          87 54 -301 -54 -95 callgsubr
          endchar
        </CharString>
        <CharString name="dvGA">
          106 503 -21 callsubr
          -527 -54 -95 callgsubr
          276 337 callgsubr
          97 vlineto
          endchar
        </CharString>
        <CharString name="dvGH">
          -89 375 137 rmoveto
          -6 -19 -62 -12 -45 hhcurveto
          -77 -46 23 71 hvcurveto
          47 vlineto
          -54 callgsubr
          71 vlineto
          45 8 25 0 vhcurveto
          217 54 -381 80 callgsubr
          108 48 57 11 6 25 vhcurveto
          endchar
        </CharString>
        <CharString name="dvGHA">
          119 515 -21 callsubr
          -539 80 callgsubr
          108 48 39 8 6 25 vhcurveto
          -78 108 callsubr
          -158 hmoveto
          -461 vlineto
          -6 -19 -44 -9 -45 hhcurveto
          -77 -46 23 71 hvcurveto
          47 vlineto
          -54 callgsubr
          71 vlineto
          45 8 25 0 vhcurveto
          endchar
        </CharString>
        <CharString name="dvGH_MA">
          508 746 64 callgsubr
          -95 -40 -40 -78 hvcurveto
          -131 vlineto
          -19 2 -16 5 -14 vhcurveto
          -7 -31 -39 -6 -33 hhcurveto
          -78 -46 23 71 hvcurveto
          47 vlineto
          -54 callgsubr
          71 vlineto
          45 8 25 0 vhcurveto
          416 hlineto
          -23 callgsubr
          -929 80 callgsubr
          112 50 59 13 7 30 vhcurveto
          -15 22 30 -7 41 85 callsubr
        </CharString>
        <CharString name="dvGH_NA">
          498 736 82 callsubr
          -177 vlineto
          -19 3 -17 5 -15 vhcurveto
          -6 -31 -40 -6 -33 hhcurveto
          -78 -46 23 71 hvcurveto
          47 vlineto
          -54 callgsubr
          71 vlineto
          45 8 25 0 vhcurveto
          596 hlineto
          -188 -413 -104 callsubr
          347 299 rmoveto
          -919 80 callgsubr
          112 51 59 12 7 30 vhcurveto
          -15 22 29 -7 38 hhcurveto
          87 43 41 80 hvcurveto
          -75 callgsubr
        </CharString>
        <CharString name="dvGH_R">
          -86 372 595 rmoveto
          54 -396 -54 101 vlineto
          248 callsubr
          -69 75 callgsubr
          -34 vlineto
          -103 72 -44 112 12 13 0 1 12 vhcurveto
          -148 -129 224 callgsubr
          30 vlineto
          -54 callgsubr
          68 vlineto
          45 8 25 0 vhcurveto
          endchar
        </CharString>
        <CharString name="dvGH_RA">
          120 126 261 rmoveto
          120 callgsubr
          216 -441 hlineto
          245 callsubr
          -150 416 rmoveto
          -54 102 vlineto
          248 callsubr
          -70 vlineto
          -45 10 -35 44 -16 vhcurveto
          39 callgsubr
        </CharString>
        <CharString name="dvGH_YA">
          416 654 -102 callgsubr
          -528 -319 rmoveto
          41 18 28 68 vhcurveto
          36 57 -35 hlineto
          -67 1 -14 27 41 vvcurveto
          54 vlineto
          45 8 25 0 vhcurveto
          329 64 callsubr
          -40 8 -32 15 -24 vhcurveto
          -9 -38 -46 -7 -36 hhcurveto
          -78 -46 23 70 hvcurveto
          687 412 rmoveto
          -837 -54 101 hlineto
          248 callsubr
          -55 vlineto
          169 callgsubr
          -13 -16 -37 -46 vvcurveto
          -43 vlineto
          -102 73 -44 112 54 71 13 15 38 vhcurveto
          -23 35 46 -8 49 -30 callsubr
        </CharString>
        <CharString name="dvG_BA">
          307 369 339 -65 callsubr
          155 212 rmoveto
          -728 -54 -95 callgsubr
          276 359 165 callgsubr
          vlineto
          endchar
        </CharString>
        <CharString name="dvG_BHA">
          473 190 595 rmoveto
          70 54 -284 -54 -95 callgsubr
          329 -137 15 callgsubr
        </CharString>
        <CharString name="dvG_BH_YA">
          759 -24 595 rmoveto
          -95 callgsubr
          276 63 54 -277 vlineto
          1021 -495 -6 callgsubr
          -498 -413 rmoveto
          -42 -10 -23 263 callgsubr
          107 vlineto
          41 11 23 63 vhcurveto
          74 hlineto
          121 296 rmoveto
          -54 192 vlineto
          -56 callsubr
          -68 vlineto
          -57 -24 -15 -74 -1 vhcurveto
          15 -12 -24 8 -37 hhcurveto
          -88 122 hlineto
          80 -40 262 callgsubr
          -24 5 -29 271 callgsubr
          -4 28 24 295 callgsubr
          60 11 -27 -41 vhcurveto
          -121 -74 vlineto
          -96 -39 -39 -79 hvcurveto
          -108 38 callgsubr
          172 83 vlineto
          26 20 -6 -23 hvcurveto
          -68 vlineto
          174 callsubr
          278 callgsubr
        </CharString>
        <CharString name="dvG_DA">
          293 592 445 171 callgsubr
          -713 -54 153 182 callgsubr
          340 92 callsubr
          27 callsubr
        </CharString>
        <CharString name="dvG_DHA">
          382 620 649 113 callgsubr
          -528 -54 -95 callgsubr
          276 152 vlineto
          0 -9 -23 -47 vvcurveto
          -67 vlineto
          -46 10 -35 44 -16 vhcurveto
          97 callsubr
          vlineto
          endchar
        </CharString>
        <CharString name="dvG_DH_VA">
          614 854 138 -97 callsubr
          -259 212 -57 callsubr
          -500 -54 -95 callgsubr
          276 151 vlineto
          234 callsubr
          -51 vlineto
          -45 10 -35 44 -17 vhcurveto
          29 callsubr
        </CharString>
        <CharString name="dvG_DH_YA">
          680 918 154 -6 callgsubr
          -323 54 -22 callgsubr
          -500 -54 -95 callgsubr
          276 151 vlineto
          234 callsubr
          -51 vlineto
          -45 10 -35 44 -17 vhcurveto
          30 callgsubr
        </CharString>
        <CharString name="dvG_GA">
          341 738 -21 callsubr
          -762 -54 -95 callgsubr
          276 174 182 callgsubr
          337 callgsubr
          97 vlineto
          endchar
        </CharString>
        <CharString name="dvG_GHA">
          382 620 134 rmoveto
          -6 -19 -44 -9 -45 hhcurveto
          -77 -46 23 71 hvcurveto
          47 vlineto
          -54 callgsubr
          71 vlineto
          45 8 25 0 vhcurveto
          217 249 callgsubr
          -802 -54 -95 callgsubr
          276 150 vlineto
          19 callgsubr
          108 48 39 8 6 25 vhcurveto
          -78 59 callgsubr
        </CharString>
        <CharString name="dvG_JA">
          426 822 -21 callsubr
          -846 -54 -95 callgsubr
          276 473 -114 -317 -56 111 vlineto
          -99 callgsubr
          144 -427 -91 callsubr
          hlineto
          endchar
        </CharString>
        <CharString name="dvG_LA">
          506 902 -21 callsubr
          -926 -54 -95 callgsubr
          276 554 -130 vlineto
          9 -23 -21 5 -31 hhcurveto
          -53 -37 -17 -28 -21 hvcurveto
          27 -19 -35 18 -54 hhcurveto
          -94 -44 -49 -80 hvcurveto
          -68 callgsubr
        </CharString>
        <CharString name="dvG_MA">
          455 693 430 -39 callsubr
          349 273 rmoveto
          -876 -54 -95 callgsubr
          276 313 210 callgsubr
          129 -376 62 595 97 vlineto
          endchar
        </CharString>
        <CharString name="dvG_NA">
          460 510 182 -104 callsubr
          347 299 rmoveto
          -881 -54 -95 callgsubr
          276 508 -116 -3 callgsubr
          139 62 callgsubr
          hlineto
          endchar
        </CharString>
        <CharString name="dvG_NNA">
          503 544 249 -38 callsubr
          356 54 rmoveto
          -924 -54 -95 callgsubr
          276 130 -346 211 callgsubr
        </CharString>
        <CharString name="dvG_N_YA">
          754 992 313 callsubr
          -26 -38 118 callgsubr
          169 vlineto
          41 16 23 55 vhcurveto
          59 hlineto
          -2 11 -27 -43 vvcurveto
          650 306 rmoveto
          -1175 -54 -95 callgsubr
          276 617 vlineto
          167 callsubr
          -56 -4 vhcurveto
          61 -10 -52 24 -79 hhcurveto
          -168 hlineto
          -88 -43 -39 -80 hvcurveto
          -169 vlineto
          -80 43 -41 88 88 43 41 80 vhcurveto
          162 vlineto
          44 -12 26 1 vvcurveto
          45 hlineto
          52 37 -11 -39 hvcurveto
          -109 vlineto
          -134 93 -37 103 47 41 6 6 24 vhcurveto
          -97 132 callsubr
        </CharString>
        <CharString name="dvG_R">
          55 callsubr
          endchar
        </CharString>
        <CharString name="dvG_RA">
          102 499 -21 callsubr
          -523 -54 153 -236 98 callgsubr
          238 150 -315 vlineto
          -264 -280 rlineto
          79 hlineto
          90 94 66 67 30 34 4 7 rlinecurve
          -1 -6 -3 -40 -74 vvcurveto
          -82 46 callsubr
        </CharString>
        <CharString name="dvG_R_YA">
          387 626 313 callsubr
          -26 -38 -6 -46 hhcurveto
          -95 -41 37 80 hvcurveto
          74 vlineto
          201 callsubr
          74 156 callsubr
          181 callgsubr
          -809 -54 153 -266 98 callgsubr
          268 251 vlineto
          -66 callsubr
          -21 -126 hlineto
          -242 -258 rlineto
          79 hlineto
          99 103 36 39 24 27 14 19 rlinecurve
          -79 27 76 -24 83 hhcurveto
          47 41 6 6 24 42 callsubr
        </CharString>
        <CharString name="dvG_SA">
          488 726 345 rmoveto
          -133 hlineto
          -94 callsubr
          137 hlineto
          181 callgsubr
          -909 -54 -95 callgsubr
          276 337 vlineto
          -107 callsubr
          51 37 13 24 23 hvcurveto
          161 -291 59 callsubr
        </CharString>
        <CharString name="dvG_VA">
          313 552 138 -97 callsubr
          157 212 rmoveto
          -733 -54 -95 callgsubr
          276 361 276 callsubr
          -62 callgsubr
        </CharString>
        <CharString name="dvG_YA">
          387 625 -102 callgsubr
          181 callgsubr
          -808 -54 -95 callgsubr
          276 39 callsubr
        </CharString>
        <CharString name="dvGx">
          -120 190 595 rmoveto
          87 54 -301 -54 -95 callgsubr
          -144 -250 rmoveto
          -28 callgsubr
          -30 -10 -17 -23 vhcurveto
          endchar
        </CharString>
        <CharString name="dvGxA">
          108 104 104 rmoveto
          -30 -10 -17 -23 -28 callgsubr
          hvcurveto
          400 545 rmoveto
          -527 -54 -95 callgsubr
          276 337 callgsubr
          97 vlineto
          endchar
        </CharString>
        <CharString name="dvGx_R">
          55 callsubr
          73 -391 rmoveto
          -28 callgsubr
          -30 -10 -17 -23 vhcurveto
          endchar
        </CharString>
        <CharString name="dvGx_RA">
          102 263 -30 rmoveto
          -30 -10 -17 -23 -28 callgsubr
          hvcurveto
          236 679 rmoveto
          -523 -54 153 -236 98 callgsubr
          238 150 -315 vlineto
          -264 -280 rlineto
          79 hlineto
          90 94 66 67 30 34 4 7 rlinecurve
          -1 -6 -3 -40 -74 vvcurveto
          -82 46 callsubr
        </CharString>
        <CharString name="dvH">
          45 357 24 callgsubr
          -240 338 rmoveto
          -85 62 -51 117 60 40 6 10 26 vhcurveto
          -59 callgsubr
          150 146 98 54 -466 11 callsubr
          endchar
        </CharString>
        <CharString name="dvHA">
          45 49 131 rmoveto
          -85 62 -51 117 60 40 6 10 26 vhcurveto
          -59 callgsubr
          150 146 98 54 -466 11 callsubr
          endchar
        </CharString>
        <CharString name="dvHA_mU">
          45 273 -5 rmoveto
          55 8 -22 -38 -39 -7 -22 -59 hvcurveto
          -75 hlineto
          -27 -20 5 35 -34 hvcurveto
          -56 55 rlineto
          -81 hlineto
          95 -95 rlineto
          -44 40 39 -11 41 hhcurveto
          82 hlineto
          88 34 35 81 81 -33 35 -86 hvcurveto
          -58 hlineto
          -85 -23 34 46 hvcurveto
          57 -32 callsubr
          150 146 98 54 -466 11 callsubr
          -57 vlineto
          -84 51 -52 119 1 vhcurveto
          endchar
        </CharString>
        <CharString name="dvHA_mUU">
          44 373 -13 rmoveto
          43 -35 -32 21 -69 hhcurveto
          -19 hlineto
          -85 -24 34 46 hvcurveto
          57 vlineto
          41 22 25 67 vhcurveto
          40 hlineto
          63 8 -23 -42 hvcurveto
          -28 58 30 vlineto
          78 -36 40 -89 106 callsubr
          65 vhcurveto
          151 146 98 54 -465 -54 305 -90 -89 hlineto
          -98 -44 -39 -79 hvcurveto
          -14 vlineto
          -46 124 callgsubr
          -19 -31 -47 vvcurveto
          -57 vlineto
          -56 23 -37 50 -19 vhcurveto
          -25 -15 -10 -26 -41 vvcurveto
          -78 31 -36 85 vhcurveto
          90 1 rlineto
          56 vlineto
          -87 -1 rlineto
          -52 -8 22 36 37 6 22 57 hvcurveto
          27 hlineto
          53 17 -14 -40 34 hvcurveto
          93 -115 rlineto
          75 hlineto
          endchar
        </CharString>
        <CharString name="dvHA_mvR">
          91 109 202 rmoveto
          40 22 24 65 vhcurveto
          122 hlineto
          40 22 -6 -39 -40 -22 -5 -40 hvcurveto
          -6 hlineto
          -77 -44 -23 -77 -80 53 -20 87 40 42 6 8 34 hvcurveto
          53 vlineto
          -8 -36 -38 -5 -38 hhcurveto
          -57 -27 5 41 40 22 5 39 hvcurveto
          7 hlineto
          79 42 26 74 73 -42 26 -79 hvcurveto
          -124 hlineto
          -65 -18 23 40 hvcurveto
          2 vlineto
          40 16 24 65 vhcurveto
          195 146 99 54 -511 -54 350 -90 -132 hlineto
          -98 -45 -39 -79 hvcurveto
          -4 vlineto
          -47 18 -28 34 -15 vhcurveto
          -35 -15 -19 -29 -46 vvcurveto
          -214 vlineto
          -87 64 -53 117 60 40 7 10 26 vhcurveto
          53 vlineto
          -11 -37 -33 -5 -54 hhcurveto
          -87 -36 32 55 hvcurveto
          endchar
        </CharString>
        <CharString name="dvH_LA">
          621 427 9 callgsubr
        </CharString>
        <CharString name="dvH_MA">
          250 488 180 rmoveto
          -126 21 hlineto
          76 -38 39 -89 vhcurveto
          -30 hlineto
          -66 -18 23 42 hvcurveto
          3 vlineto
          42 16 24 65 vhcurveto
          157 145 129 249 callgsubr
          -670 -54 321 -90 -95 hlineto
          -98 -45 -39 -80 hvcurveto
          -4 vlineto
          -49 17 -29 36 -16 vhcurveto
          -37 -15 -18 -30 -46 vvcurveto
          -77 vlineto
          -79 38 -57 117 vhcurveto
          56 vlineto
          -80 -13 39 39 hvcurveto
          80 vlineto
          40 22 24 66 vhcurveto
          25 hlineto
          62 9 -24 -40 hvcurveto
          -128 59 56 126 -135 62 604 96 vlineto
          endchar
        </CharString>
        <CharString name="dvH_NA">
          574 812 82 callsubr
          -50 -226 vlineto
          318 callgsubr
          150 146 468 hlineto
          -188 -413 -104 callsubr
          347 299 rmoveto
          -995 66 callsubr
          222 -72 hlineto
          -80 44 -41 88 87 43 41 80 vhcurveto
          -75 callgsubr
        </CharString>
        <CharString name="dvH_NNA">
          644 685 249 -38 callsubr
          -489 -286 rmoveto
          318 callgsubr
          150 146 117 -286 hlineto
          580 340 rmoveto
          -1065 66 callsubr
          261 -5 hlineto
          107 callgsubr
          137 -595 46 callsubr
        </CharString>
        <CharString name="dvH_R">
          68 208 -60 65 callsubr
          97 511 -11 callsubr
        </CharString>
        <CharString name="dvH_RA">
          68 362 451 -11 callsubr
        </CharString>
        <CharString name="dvH_VA">
          432 671 492 rmoveto
          107 callsubr
          -174 vlineto
          33 callgsubr
          54 -472 -54 314 vlineto
          1 -457 -97 callsubr
          endchar
        </CharString>
        <CharString name="dvH_YA">
          238 476 151 rmoveto
          -5 -19 -30 -5 -36 hhcurveto
          -42 hlineto
          7 11 3 15 18 vvcurveto
          23 vlineto
          76 -40 39 -93 vhcurveto
          -30 hlineto
          -65 -18 24 42 hvcurveto
          3 vlineto
          41 16 25 65 vhcurveto
          158 137 124 249 callgsubr
          -658 -54 314 -82 -96 hlineto
          -98 -45 -39 -81 hvcurveto
          -3 vlineto
          -48 18 -30 34 -16 vhcurveto
          -36 -16 -18 -30 -47 vvcurveto
          -83 vlineto
          -79 38 -57 116 vhcurveto
          56 vlineto
          -79 -13 39 39 hvcurveto
          86 vlineto
          41 21 25 68 vhcurveto
          25 hlineto
          65 9 -25 -41 hvcurveto
          -25 vlineto
          -28 -14 -10 -37 vhcurveto
          -56 141 vlineto
          40 31 5 5 16 hvcurveto
          -103 61 603 97 vlineto
          endchar
        </CharString>
        <CharString name="dvI">
          25 110 171 rmoveto
          -59 -236 59 101 hlineto
          -5 23 32 -3 37 hhcurveto
          109 45 41 82 hvcurveto
          40 vlineto
          79 -47 42 -100 vhcurveto
          -22 hlineto
          -66 239 callsubr
          5 vlineto
          41 18 24 66 vhcurveto
          141 147 93 54 -445 -54 290 -91 -79 hlineto
          -98 -47 -40 -80 hvcurveto
          -6 vlineto
          -80 47 -41 98 vhcurveto
          22 hlineto
          68 18 -27 -40 hvcurveto
          -38 vlineto
          -44 -28 -24 -68 -36 -28 3 5 -25 vhcurveto
          endchar
        </CharString>
        <CharString name="dvII">
          25 328 448 rmoveto
          147 93 54 -98 vlineto
          -16 32 -19 44 33 vvcurveto
          52 37 16 42 13 13 -1 -2 11 vhcurveto
          55 vlineto
          1 -12 -15 3 -22 hhcurveto
          -66 -63 -31 -88 -42 18 -40 17 -32 25 callsubr
          endchar
        </CharString>
        <CharString name="dvII_Anusvara">
          25 353 744 rmoveto
          -21 9 -16 28 27 10 16 21 21 -10 16 -27 -28 -9 -16 -21 vhcurveto
          51 144 rmoveto
          2 -12 -15 3 -20 hhcurveto
          -70 -63 -32 -90 -44 18 -44 19 -34 25 callsubr
          141 147 93 54 -98 hlineto
          -18 33 -19 49 35 vvcurveto
          54 37 18 45 12 13 -1 -2 11 vhcurveto
          endchar
        </CharString>
        <CharString name="dvJ">
          -33 422 -21 callsubr
          -446 -54 446 hlineto
          -114 vmoveto
          -325 -56 111 -100 callsubr
          152 hlineto
          endchar
        </CharString>
        <CharString name="dvJA">
          177 278 357 58 callgsubr
        </CharString>
        <CharString name="dvJH">
          24 202 20 rmoveto
          153 callgsubr
          172 52 -294 hlineto
          112 callgsubr
          144 54 -511 -39 callgsubr
          endchar
        </CharString>
        <CharString name="dvJHA">
          226 199 257 rmoveto
          79 callgsubr
          54 -646 -54 298 -90 -79 hlineto
          -98 -47 -40 -80 hvcurveto
          -7 vlineto
          -80 47 -41 97 vhcurveto
          -1 55 rmoveto
          211 callsubr
          141 146 128 -283 hlineto
          endchar
        </CharString>
        <CharString name="dvJH_MA">
          612 850 64 callgsubr
          -95 -40 -40 -78 hvcurveto
          -257 hlineto
          112 callgsubr
          317 hlineto
          -23 callgsubr
          -1033 -39 callgsubr
          153 callgsubr
          135 -79 hlineto
          5 callsubr
        </CharString>
        <CharString name="dvJH_NA">
          617 855 82 callsubr
          -47 -272 vlineto
          112 callgsubr
          512 hlineto
          -188 -413 -104 callsubr
          347 299 rmoveto
          -1038 -39 callgsubr
          153 callgsubr
          150 -78 hlineto
          -80 44 -41 88 87 43 41 80 vhcurveto
          -75 callgsubr
        </CharString>
        <CharString name="dvJH_R">
          69 527 200 rmoveto
          -262 -288 rlineto
          73 hlineto
          106 115 37 40 43 56 3 8 rlinecurve
          -181 58 rmoveto
          33 -10 23 -19 15 vhcurveto
          210 52 -328 hlineto
          -64 -17 25 41 hvcurveto
          6 vlineto
          41 18 24 65 vhcurveto
          187 146 138 54 -550 -54 350 -90 -125 hlineto
          -98 -47 -40 -80 hvcurveto
          -7 vlineto
          -81 47 -40 95 vhcurveto
          4 hlineto
          65 17 -28 -39 hvcurveto
          -47 vlineto
          -41 -23 -28 -68 -25 -27 2 8 -26 vhcurveto
          71 -59 -216 59 88 vlineto
          -6 26 23 -3 34 hhcurveto
          104 44 41 83 hvcurveto
          endchar
        </CharString>
        <CharString name="dvJH_RA">
          262 346 189 rmoveto
          33 -10 23 -19 15 vhcurveto
          178 hlineto
          1 -94 -231 -254 rlineto
          73 hlineto
          106 115 37 40 22 36 3 7 rlinecurve
          -1 vlineto
          -1 -10 -2 -23 -27 vvcurveto
          -51 59 597 97 54 -683 -54 350 -90 -125 vlineto
          -98 -47 -40 -80 hvcurveto
          -7 vlineto
          -81 49 -40 94 vhcurveto
          3 hlineto
          65 17 -28 -39 hvcurveto
          -44 vlineto
          -42 -23 -28 -68 -25 -27 3 7 -26 vhcurveto
          71 -59 -216 59 89 vlineto
          -7 26 23 -3 34 hhcurveto
          104 44 42 82 hvcurveto
          -145 305 rmoveto
          187 146 112 -283 -301 hlineto
          -64 1 -17 24 41 vvcurveto
          6 vlineto
          41 18 24 65 vhcurveto
          endchar
        </CharString>
        <CharString name="dvJH_YA">
          539 777 -102 callgsubr
          -307 -211 rmoveto
          -72 -277 vlineto
          112 callgsubr
          249 hlineto
          -66 callsubr
          446 265 rmoveto
          -960 -39 callgsubr
          153 callgsubr
          155 -4 hlineto
          -134 92 -76 callgsubr
        </CharString>
        <CharString name="dvJ_BA">
          399 461 339 -65 callsubr
          155 212 rmoveto
          -820 -54 665 158 callsubr
          -43 -34 -8 -16 -25 hvcurveto
          -355 -56 111 -100 callsubr
          138 hlineto
          -5 -15 -3 -16 -19 218 callgsubr
        </CharString>
        <CharString name="dvJ_DA">
          385 684 445 171 callgsubr
          -805 -54 646 -93 -76 vlineto
          -40 -32 -7 -13 -23 hvcurveto
          -354 -56 185 callgsubr
          -178 98 callsubr
          181 -86 callgsubr
          136 hlineto
          -5 -15 -2 -16 -19 vvcurveto
          27 callsubr
        </CharString>
        <CharString name="dvJ_DDA">
          377 672 313 callgsubr
          101 54 -797 -54 634 -90 -74 vlineto
          -44 -34 -8 -16 -24 hvcurveto
          -337 -56 111 -100 callsubr
          125 hlineto
          -3 -12 -2 -14 -16 vvcurveto
          -65 callgsubr
          110 callsubr
        </CharString>
        <CharString name="dvJ_JA">
          537 933 -21 callsubr
          -957 -54 799 -114 -678 -56 111 -100 callsubr
          298 hlineto
          0 9 -27 -45 vvcurveto
          -177 vlineto
          -48 -26 71 callsubr
          8 -29 vhcurveto
          -58 vlineto
          -7 26 24 -5 43 300 callgsubr
          145 -427 61 -71 callgsubr
          hlineto
          endchar
        </CharString>
        <CharString name="dvJ_JHA">
          563 802 312 rmoveto
          -271 hlineto
          211 callsubr
          141 146 128 249 callgsubr
          -984 -54 636 -90 -79 hlineto
          -44 -33 -8 -16 -24 hvcurveto
          -335 -56 111 -100 callsubr
          123 hlineto
          -3 -12 -2 -14 -16 vvcurveto
          -7 vlineto
          -80 47 -41 97 vhcurveto
          5 hlineto
          79 callgsubr
          hlineto
          endchar
        </CharString>
        <CharString name="dvJ_J_NYA">
          597 97 425 rmoveto
          111 -100 callsubr
          152 54 -325 hlineto
          897 168 rmoveto
          -1018 -54 859 -114 -326 -54 83 callsubr
          144 -427 59 callsubr
        </CharString>
        <CharString name="dvJ_J_VA">
          764 1003 138 -97 callsubr
          157 212 rmoveto
          -1184 -54 1026 -103 hlineto
          -17 callgsubr
          -41 -32 -9 -15 -25 hvcurveto
          -714 -56 111 -100 callsubr
          298 hlineto
          0 9 -27 -45 vvcurveto
          -177 vlineto
          -48 -26 71 callsubr
          8 -29 vhcurveto
          -58 vlineto
          -7 26 24 -5 43 300 callgsubr
          138 hlineto
          -6 -15 -3 -18 -19 vvcurveto
          -174 vlineto
          -62 callgsubr
        </CharString>
        <CharString name="dvJ_J_YA">
          838 1075 -102 callgsubr
          181 callgsubr
          -1258 -54 914 hlineto
          184 callsubr
          -20 -17 -57 -4 vhcurveto
          68 -2 -41 28 -87 hhcurveto
          -594 -56 111 -100 callsubr
          298 hlineto
          0 9 -27 -45 vvcurveto
          -177 vlineto
          -48 -26 71 callsubr
          8 -29 vhcurveto
          -58 vlineto
          -7 26 24 -5 43 300 callgsubr
          55 hlineto
          67 16 -11 -47 hvcurveto
          -113 vlineto
          -134 92 -76 callgsubr
        </CharString>
        <CharString name="dvJ_KA">
          560 957 595 rmoveto
          54 -981 -54 639 -461 vlineto
          -105 callgsubr
          -40 -31 -8 -15 -23 hvcurveto
          -349 -56 111 -100 callsubr
          136 hlineto
          -5 -14 -2 -16 -17 vvcurveto
          -90 callgsubr
          vlineto
          endchar
        </CharString>
        <CharString name="dvJ_MA">
          547 785 430 -39 callsubr
          349 273 rmoveto
          -968 -54 619 196 callgsubr
          -17 -15 -1 -3 -13 hvcurveto
          38 -15 -46 17 -69 hhcurveto
          -248 -56 111 -100 callsubr
          67 hlineto
          45 27 -6 -18 12 hvcurveto
          -25 -19 -11 -31 -41 vvcurveto
          -131 vlineto
          5 callsubr
        </CharString>
        <CharString name="dvJ_NA">
          563 613 182 -104 callsubr
          347 299 rmoveto
          -984 -54 825 312 callgsubr
          -46 -35 -11 -22 -22 hvcurveto
          23 -20 -37 12 -49 hhcurveto
          -237 -56 111 -100 callsubr
          67 hlineto
          46 22 -13 -23 9 hvcurveto
          -2 -10 -1 -10 -12 vvcurveto
          -94 callgsubr
          139 62 callgsubr
          hlineto
          endchar
        </CharString>
        <CharString name="dvJ_NY">
          19 141 427 rmoveto
          83 callsubr
          174 54 -356 hlineto
          -165 168 rmoveto
          -54 521 54 vlineto
          endchar
        </CharString>
        <CharString name="dvJ_NYA">
          229 -24 -21 callsubr
          -54 491 -114 -326 -54 119 vlineto
          -31 callsubr
          144 -427 -91 callsubr
          54 hlineto
          endchar
        </CharString>
        <CharString name="dvJ_NY_YA">
          529 767 248 rmoveto
          -72 -4 -29 -33 -89 hhcurveto
          -95 -30 37 80 hvcurveto
          90 vlineto
          81 1 50 34 83 vvcurveto
          57 vlineto
          40 -13 22 -15 8 vhcurveto
          144 249 callgsubr
          -949 -54 541 hlineto
          56 16 -27 -43 hvcurveto
          -52 291 callgsubr
          65 -3 -61 15 -65 hhcurveto
          -243 -54 83 callsubr
          56 hlineto
          57 23 -7 -46 hvcurveto
          -118 vlineto
          -134 81 -37 103 68 36 16 24 20 vhcurveto
          -125 59 callgsubr
        </CharString>
        <CharString name="dvJ_R">
          -26 139 -47 25 callgsubr
        </CharString>
        <CharString name="dvJ_RA">
          182 422 14 callgsubr
          endchar
        </CharString>
        <CharString name="dvJ_TA">
          416 813 -21 callsubr
          -837 -54 678 310 callsubr
          -39 -31 -8 -14 -24 hvcurveto
          -368 -56 111 -100 callsubr
          149 hlineto
          -7 -16 -3 -19 -20 vvcurveto
          -250 vlineto
          -66 callgsubr
        </CharString>
        <CharString name="dvJ_TTA">
          372 677 445 294 callsubr
          -791 -54 639 -93 -58 vlineto
          -40 -31 -7 -14 -24 hvcurveto
          -365 -56 111 -100 callsubr
          147 hlineto
          -5 -15 -3 -18 -20 vvcurveto
          43 callgsubr
        </CharString>
        <CharString name="dvJ_VA">
          405 644 138 -97 callsubr
          157 212 rmoveto
          -825 -54 667 -103 hlineto
          -17 callgsubr
          -41 -32 -9 -15 -25 hvcurveto
          -355 -56 111 -100 callsubr
          139 hlineto
          -6 -15 -3 -18 -19 vvcurveto
          -174 vlineto
          -62 callgsubr
        </CharString>
        <CharString name="dvJ_YA">
          477 715 67 callsubr
          90 vlineto
          232 callsubr
          57 156 callsubr
          181 callgsubr
          -898 -54 554 hlineto
          -56 callsubr
          -52 291 callgsubr
          64 -3 -60 16 -66 hhcurveto
          -236 -56 111 -100 callsubr
          54 hlineto
          58 26 -6 -47 hvcurveto
          -118 vlineto
          -134 92 -76 callgsubr
        </CharString>
        <CharString name="dvJx">
          -33 43 -65 rmoveto
          -23 11 188 callgsubr
          -11 -17 -23 vhcurveto
          379 714 rmoveto
          -446 -54 446 hlineto
          -114 vmoveto
          -325 -56 111 -100 callsubr
          152 hlineto
          endchar
        </CharString>
        <CharString name="dvJxA">
          177 -3 -47 rmoveto
          -23 10 -17 31 152 callsubr
          281 404 58 callgsubr
        </CharString>
        <CharString name="dvJx_JxA">
          537 29 3 152 callgsubr
          363 hmoveto
          -31 308 callgsubr
          11 247 callsubr
          541 646 rmoveto
          -957 -54 799 -114 -678 -56 111 -100 callsubr
          298 hlineto
          0 9 -27 -45 vvcurveto
          -177 vlineto
          -48 -26 71 callsubr
          8 -29 vhcurveto
          -58 vlineto
          -7 26 24 -5 43 300 callgsubr
          145 -427 61 -71 callgsubr
          hlineto
          endchar
        </CharString>
        <CharString name="dvJx_R">
          2 1 13 rmoveto
          -28 callgsubr
          -30 -10 -17 -23 vhcurveto
          154 -60 25 callgsubr
        </CharString>
        <CharString name="dvJx_RA">
          198 438 14 callgsubr
          -288 -406 rmoveto
          -28 callgsubr
          -30 -10 -17 -23 vhcurveto
          endchar
        </CharString>
</ttFont>
